<svg version="1.1" id="Layer_1" xmlns="http://www.w3.org/2000/svg" xmlns:xlink="http://www.w3.org/1999/xlink" x="0px" y="0px"
	 width="100%" viewBox="0 0 256 496" enable-background="new 0 0 256 496" xml:space="preserve">
<path fill="#000000" opacity="1.000000" stroke="none" 
	d="
M98.789825,423.026306 
	C99.423782,419.001495 100.020973,415.407928 100.618156,411.814331 
	C100.339951,411.517181 100.061752,411.220032 99.783546,410.922882 
	C81.070961,431.467285 59.906307,448.511261 33.145309,459.353210 
	C40.289986,427.698303 54.312874,400.045227 68.789612,372.257050 
	C60.803085,378.895020 52.816559,385.532990 44.830029,392.170959 
	C44.445538,391.776459 44.061047,391.381927 43.676556,390.987427 
	C51.501358,367.626709 60.994453,345.676575 90.155365,339.270508 
	C81.315208,332.566254 79.239105,325.337311 87.305695,316.580292 
	C79.930542,316.367859 74.306023,318.409546 68.635330,319.906677 
	C59.949268,322.199799 51.299229,324.588135 42.392811,325.923492 
	C31.325031,327.582947 26.685387,322.224304 30.726444,311.709045 
	C34.932751,300.763763 36.541664,289.198975 39.553429,277.975555 
	C41.254734,271.635620 44.700653,266.861694 50.166313,263.463104 
	C54.974037,260.473602 59.866737,257.621033 64.708481,254.685822 
	C69.151085,251.992615 73.192696,248.869659 76.336647,244.625443 
	C78.422279,241.809891 80.821327,239.200851 84.399261,238.196945 
	C88.155952,237.142914 88.944008,234.583389 88.812592,230.947845 
	C88.126114,211.956329 88.732353,193.024170 92.997826,174.406570 
	C99.900848,144.276794 115.285660,119.056252 137.676865,97.953049 
	C144.234253,91.772881 151.146698,86.031715 158.626984,80.992577 
	C170.792145,72.797432 177.105377,61.476479 177.758560,46.719479 
	C177.990768,41.473228 179.377777,36.224472 180.687256,31.091564 
	C182.881470,22.490562 188.379074,17.999327 197.381424,18.821812 
	C208.199722,19.810207 218.742645,22.680708 227.637497,29.353664 
	C237.728729,36.924118 239.334976,47.753918 230.898010,56.983665 
	C212.962326,76.604668 206.203613,100.595009 202.283051,125.892372 
	C200.168182,139.538452 198.803268,153.285110 198.421509,167.062164 
	C197.302383,207.451080 204.861237,246.397614 218.865021,284.180176 
	C221.870331,292.288544 224.804214,300.429779 228.070007,308.433838 
	C233.366043,321.413849 239.718658,333.728210 248.521332,344.874542 
	C257.866455,356.707703 254.915802,371.095001 242.460770,379.385651 
	C241.634857,379.935394 240.768005,380.679626 239.851227,380.797668 
	C229.596619,382.117828 219.594406,386.348206 208.998642,383.787720 
	C203.878036,382.550323 200.558441,384.075653 197.061478,388.286865 
	C189.196503,397.758301 180.465103,406.505066 171.311172,414.784454 
	C168.787231,417.067261 165.860367,418.253906 162.616959,416.745605 
	C159.525696,415.308105 159.547943,412.262421 159.660904,409.372528 
	C160.018646,400.219299 162.088303,391.275818 163.020462,382.193085 
	C163.478455,377.730255 163.881119,373.260773 164.229462,368.788116 
	C164.381226,366.839325 163.644852,365.212036 162.004120,364.037598 
	C159.043106,361.918030 156.098145,359.776031 152.653854,357.287476 
	C147.330093,365.442627 141.790680,373.247253 130.032166,369.227692 
	C128.078690,379.147400 126.821770,388.671906 124.331711,397.940857 
	C121.673523,407.835602 117.215706,416.561859 108.941818,423.003204 
	C107.076294,424.455505 105.075882,425.551605 102.905151,426.455170 
	C99.766258,427.761688 98.516350,426.701721 98.789825,423.026306 
M106.911224,177.332169 
	C101.943367,201.426529 102.043205,225.627274 106.282539,249.739990 
	C113.181664,288.981293 132.093903,321.486847 162.931351,346.726318 
	C175.498459,357.012085 189.358353,365.485229 205.799942,368.060272 
	C211.311462,368.923492 217.801651,371.613403 222.313370,365.736176 
	C225.688721,361.339233 230.359390,359.631287 235.123962,358.209015 
	C235.808762,354.795746 234.484528,352.250122 232.972260,349.874023 
	C221.258453,331.469086 213.741013,311.145111 206.288193,290.845459 
	C194.245560,258.044189 187.104080,224.077087 184.949127,189.239853 
	C183.800140,170.664810 183.754669,151.912094 186.816147,133.444229 
	C191.795364,103.407921 196.166260,73.097290 218.261307,49.334587 
	C222.590790,44.678329 220.466614,39.570637 214.144653,38.410469 
	C210.514008,37.744198 207.100067,36.544880 203.619476,35.499237 
	C196.834961,33.461033 193.313110,35.858631 193.389511,42.898075 
	C193.515854,54.538414 190.641190,65.247383 184.194946,75.005188 
	C176.969437,85.942642 166.652191,93.484001 156.383453,101.228844 
	C130.987823,120.382622 114.585602,145.562515 106.911224,177.332169 
M100.820442,392.165649 
	C104.112503,385.733490 107.378670,379.287811 110.723335,372.883148 
	C111.250999,371.872742 112.014114,370.909912 112.874901,370.163177 
	C115.317833,368.043915 114.933395,365.769897 114.078629,362.956696 
	C111.481018,354.407532 103.916725,350.565735 97.927589,345.212341 
	C94.499580,342.148254 90.618011,342.170349 86.754501,343.906250 
	C83.259239,345.476654 80.106148,347.683960 77.675201,350.754517 
	C73.295799,356.286194 73.234406,359.242615 77.482689,364.648132 
	C78.507050,365.951508 79.707504,367.115692 80.813454,368.355957 
	C83.359749,371.211548 84.082405,374.343140 82.627052,378.024292 
	C80.789917,382.671173 78.856316,387.225586 76.112656,391.453644 
	C73.764656,395.071960 71.644531,398.923859 71.136650,403.315063 
	C70.481369,408.980652 74.387268,412.031219 79.537399,409.677399 
	C87.903008,405.853943 95.840462,401.354126 100.820442,392.165649 
M93.596222,295.823517 
	C93.990280,291.341553 94.419037,286.795898 93.296486,282.422791 
	C92.551743,279.521545 92.789955,277.609955 96.225845,276.847809 
	C92.878502,269.634827 88.496704,263.695221 83.624969,257.615662 
	C74.376259,263.538239 65.272789,268.972900 57.473434,276.288788 
	C56.087868,277.588470 55.233639,279.153839 54.715183,280.940033 
	C52.356499,289.066498 49.988670,297.190338 47.658054,305.324860 
	C47.295872,306.588989 46.950981,307.922729 48.543957,309.525818 
	C61.311935,307.009033 74.566040,305.252014 87.613762,302.182037 
	C90.994728,301.386505 93.022842,300.119904 93.596222,295.823517 
M138.471405,348.239960 
	C133.097351,347.612823 130.248718,343.060883 126.355606,340.220459 
	C117.821930,333.994263 109.623901,327.307953 101.346039,320.854156 
	C97.875015,323.924683 97.903030,325.964081 101.473808,328.593719 
	C108.700851,333.915985 115.479713,339.842346 122.598289,345.318237 
	C126.611191,348.405090 130.331055,351.982056 135.348877,354.412598 
	C136.035126,351.746429 138.768250,350.864227 138.471405,348.239960 
M174.831848,392.128845 
	C174.891769,392.281921 174.911972,392.483002 175.022720,392.574677 
	C175.135345,392.667938 175.403397,392.740112 175.490524,392.673645 
	C180.385437,388.938995 184.210297,384.220306 188.520493,379.081787 
	C185.140579,377.391449 182.544495,375.417816 179.057526,375.123199 
	C176.261292,380.400330 176.066849,386.113251 174.831848,392.128845 
z"/>
<path fill="#000000" opacity="1.000000" stroke="none" 
	d="
M187.312988,317.710144 
	C195.953644,330.210754 205.667908,341.332092 216.978424,351.875580 
	C214.055542,352.966064 212.640198,351.265503 211.160660,350.348999 
	C193.877747,339.642517 181.272720,324.417572 170.802994,307.393097 
	C152.972107,278.398834 142.855728,246.890060 140.546234,212.812683 
	C138.461761,182.055283 144.532104,153.249878 159.894791,126.522385 
	C164.245697,118.952835 169.388672,111.870598 177.221436,105.688957 
	C176.964844,109.641151 174.942322,111.562241 173.660370,113.702080 
	C158.761520,138.571533 151.875427,165.500366 151.077545,194.450699 
	C149.837341,239.451401 162.326843,280.168762 187.312988,317.710144 
z"/>
<path fill="#000000" opacity="1.000000" stroke="none" 
	d="
M89.632164,356.515808 
	C91.825531,355.928528 93.860474,355.762573 94.182602,358.164001 
	C94.431870,360.022369 93.019699,361.495850 91.362793,362.370026 
	C90.087959,363.042603 88.671539,362.861725 87.864082,361.638977 
	C86.484253,359.549561 87.555130,357.967163 89.632164,356.515808 
z"/>
</svg>
