<svg width="427" height="225" version="1.1" xmlns="http://www.w3.org/2000/svg" desc="Created with imagetracer.js version 1.2.6" ><path fill="rgb(223,216,210)" stroke="rgb(223,216,210)" stroke-width="1" opacity="0.09803921568627451" d="M 116.5 7 L 119.5 11 L 116.5 7 Z " /><path fill="rgb(223,216,210)" stroke="rgb(223,216,210)" stroke-width="1" opacity="0.09803921568627451" d="M 120.5 12 L 121 17.5 L 120 17.5 L 120.5 12 Z " /><path fill="rgb(223,216,210)" stroke="rgb(223,216,210)" stroke-width="1" opacity="0.09803921568627451" d="M 119.5 19 L 119 20.5 L 117.5 23 L 118 21.5 L 119.5 19 Z " /><path fill="rgb(223,216,210)" stroke="rgb(223,216,210)" stroke-width="1" opacity="0.09803921568627451" d="M 114.5 26 L 113 28.5 L 112.5 30 L 112 28.5 L 114.5 26 Z " /><path fill="rgb(223,216,210)" stroke="rgb(223,216,210)" stroke-width="1" opacity="0.09803921568627451" d="M 110.5 32 L 111 33.5 L 109 34.5 L 110.5 32 Z " /><path fill="rgb(223,216,210)" stroke="rgb(223,216,210)" stroke-width="1" opacity="0.09803921568627451" d="M 109.5 36 L 108.5 38 L 109.5 36 Z " /><path fill="rgb(223,216,210)" stroke="rgb(223,216,210)" stroke-width="1" opacity="0.09803921568627451" d="M 75.5 37 L 68.5 45 L 75.5 37 Z " /><path fill="rgb(223,216,210)" stroke="rgb(223,216,210)" stroke-width="1" opacity="0.09803921568627451" d="M 62.5 51 L 61.5 53 L 62.5 51 Z " /><path fill="rgb(223,216,210)" stroke="rgb(223,216,210)" stroke-width="1" opacity="0.09803921568627451" d="M 103.5 58 L 104 61.5 L 103 61.5 L 103.5 58 Z " /><path fill="rgb(223,216,210)" stroke="rgb(223,216,210)" stroke-width="1" opacity="0.09803921568627451" d="M 56.5 60 L 57 61.5 L 55 62.5 L 56.5 60 Z " /><path fill="rgb(223,216,210)" stroke="rgb(223,216,210)" stroke-width="1" opacity="0.09803921568627451" d="M 287.5 66 L 288.5 68 L 286 67.5 L 287.5 66 Z " /><path fill="rgb(223,216,210)" stroke="rgb(223,216,210)" stroke-width="1" opacity="0.09803921568627451" d="M 183.5 67 L 186 67.5 L 183.5 68 L 183.5 67 Z " /><path fill="rgb(223,216,210)" stroke="rgb(223,216,210)" stroke-width="1" opacity="0.09803921568627451" d="M 191.5 67 L 194 67.5 L 191.5 68 L 191.5 67 Z " /><path fill="rgb(223,216,210)" stroke="rgb(223,216,210)" stroke-width="1" opacity="0.09803921568627451" d="M 208.5 67 Q 214.5 65.5 216 68.5 L 215.5 71 L 215 68 L 208.5 68 L 208.5 67 Z " /><path fill="rgb(223,216,210)" stroke="rgb(223,216,210)" stroke-width="1" opacity="0.09803921568627451" d="M 219.5 67 L 223 67.5 L 219.5 68 L 219.5 67 Z " /><path fill="rgb(223,216,210)" stroke="rgb(223,216,210)" stroke-width="1" opacity="0.09803921568627451" d="M 226.5 67 L 229 67.5 L 226.5 68 L 226.5 67 Z " /><path fill="rgb(223,216,210)" stroke="rgb(223,216,210)" stroke-width="1" opacity="0.09803921568627451" d="M 248.5 67 L 252 67.5 L 248.5 68 L 248.5 67 Z " /><path fill="rgb(223,216,210)" stroke="rgb(223,216,210)" stroke-width="1" opacity="0.09803921568627451" d="M 256.5 67 Q 261.8 65.8 263 68.5 L 261.5 68 Q 255.5 69.2 256.5 67 Z " /><path fill="rgb(223,216,210)" stroke="rgb(223,216,210)" stroke-width="1" opacity="0.09803921568627451" d="M 273.5 67 L 281 67 L 281 70.5 L 280 70.5 L 280 68 L 273.5 68 L 273.5 67 Z " /><path fill="rgb(223,216,210)" stroke="rgb(223,216,210)" stroke-width="1" opacity="0.09803921568627451" d="M 314.5 67 L 317 67.5 L 314.5 68 L 314.5 67 Z " /><path fill="rgb(223,216,210)" stroke="rgb(223,216,210)" stroke-width="1" opacity="0.09803921568627451" d="M 322.5 67 L 327 67.5 L 322.5 68 L 322.5 67 Z " /><path fill="rgb(223,216,210)" stroke="rgb(223,216,210)" stroke-width="1" opacity="0.09803921568627451" d="M 198.5 69 L 199.5 71 L 198.5 69 Z " /><path fill="rgb(223,216,210)" stroke="rgb(223,216,210)" stroke-width="1" opacity="0.09803921568627451" d="M 159.5 70 L 160 71.5 L 158 72.5 L 159.5 70 Z " /><path fill="rgb(223,216,210)" stroke="rgb(223,216,210)" stroke-width="1" opacity="0.09803921568627451" d="M 234.5 71 L 236 73.5 L 235 73.5 L 234.5 71 Z " /><path fill="rgb(223,216,210)" stroke="rgb(223,216,210)" stroke-width="1" opacity="0.09803921568627451" d="M 267.5 72 L 268.5 74 L 267.5 72 Z " /><path fill="rgb(223,216,210)" stroke="rgb(223,216,210)" stroke-width="1" opacity="0.09803921568627451" d="M 148.5 73 L 157 73.5 L 148.5 74 L 148.5 73 Z " /><path fill="rgb(223,216,210)" stroke="rgb(223,216,210)" stroke-width="1" opacity="0.09803921568627451" d="M 168.5 73 L 165.5 77 L 164 76.5 L 168.5 73 Z " /><path fill="rgb(223,216,210)" stroke="rgb(223,216,210)" stroke-width="1" opacity="0.09803921568627451" d="M 307.5 73 L 306.5 75 L 307.5 73 Z " /><path fill="rgb(223,216,210)" stroke="rgb(223,216,210)" stroke-width="1" opacity="0.09803921568627451" d="M 318.5 74 L 322 74.5 L 318.5 75 L 318.5 74 Z " /><path fill="rgb(223,216,210)" stroke="rgb(223,216,210)" stroke-width="1" opacity="0.09803921568627451" d="M 185.5 75 L 184.5 77 L 185.5 75 Z " /><path fill="rgb(223,216,210)" stroke="rgb(223,216,210)" stroke-width="1" opacity="0.09803921568627451" d="M 219.5 76 L 221 76.5 L 218.5 78 L 219.5 76 Z " /><path fill="rgb(223,216,210)" stroke="rgb(223,216,210)" stroke-width="1" opacity="0.09803921568627451" d="M 250.5 76 L 251 78 L 249 77.5 L 250.5 76 Z " /><path fill="rgb(223,216,210)" stroke="rgb(223,216,210)" stroke-width="1" opacity="0.09803921568627451" d="M 285.5 76 L 284.5 78 L 285.5 76 Z " /><path fill="rgb(223,216,210)" stroke="rgb(223,216,210)" stroke-width="1" opacity="0.09803921568627451" d="M 289.5 76 L 293 78.5 L 290.5 77 L 289.5 76 Z " /><path fill="rgb(223,216,210)" stroke="rgb(223,216,210)" stroke-width="1" opacity="0.09803921568627451" d="M 334.5 76 L 335 78.5 L 334 78.5 L 334.5 76 Z " /><path fill="rgb(223,216,210)" stroke="rgb(223,216,210)" stroke-width="1" opacity="0.09803921568627451" d="M 269 77 Q 272 75.8 271 79.5 Q 268.2 81.3 270 87.5 L 271 90.5 Q 271.8 95.3 269.5 97 L 269 77 Z " /><path fill="rgb(223,216,210)" stroke="rgb(223,216,210)" stroke-width="1" opacity="0.09803921568627451" d="M 248.5 80 L 251 80.5 L 248.5 81 L 248.5 80 Z " /><path fill="rgb(223,216,210)" stroke="rgb(223,216,210)" stroke-width="1" opacity="0.09803921568627451" d="M 307.5 83 L 306.5 85 L 307.5 83 Z " /><path fill="rgb(223,216,210)" stroke="rgb(223,216,210)" stroke-width="1" opacity="0.09803921568627451" d="M 160.5 84 L 162 86.5 L 161 86.5 L 160.5 84 Z " /><path fill="rgb(223,216,210)" stroke="rgb(223,216,210)" stroke-width="1" opacity="0.09803921568627451" d="M 175.5 84 L 174.5 86 L 175.5 84 Z " /><path fill="rgb(223,216,210)" stroke="rgb(223,216,210)" stroke-width="1" opacity="0.09803921568627451" d="M 259.5 87 L 260.5 89 L 259.5 87 Z " /><path fill="rgb(223,216,210)" stroke="rgb(223,216,210)" stroke-width="1" opacity="0.09803921568627451" d="M 316.5 88 L 315.5 90 L 316.5 88 Z " /><path fill="rgb(223,216,210)" stroke="rgb(223,216,210)" stroke-width="1" opacity="0.09803921568627451" d="M 292.5 89 L 293 91.5 L 292 91.5 L 292.5 89 Z " /><path fill="rgb(223,216,210)" stroke="rgb(223,216,210)" stroke-width="1" opacity="0.09803921568627451" d="M 192.5 91 L 191.5 93 L 192.5 91 Z " /><path fill="rgb(223,216,210)" stroke="rgb(223,216,210)" stroke-width="1" opacity="0.09803921568627451" d="M 239.5 91 L 240 93.5 L 239 93.5 L 239.5 91 Z " /><path fill="rgb(223,216,210)" stroke="rgb(223,216,210)" stroke-width="1" opacity="0.09803921568627451" d="M 186.5 93 L 190 93.5 L 186.5 94 L 186.5 93 Z " /><path fill="rgb(223,216,210)" stroke="rgb(223,216,210)" stroke-width="1" opacity="0.09803921568627451" d="M 251.5 93 L 256 93.5 L 251.5 94 L 251.5 93 Z " /><path fill="rgb(223,216,210)" stroke="rgb(223,216,210)" stroke-width="1" opacity="0.09803921568627451" d="M 292.5 93 L 293 98.5 L 292 98.5 L 292.5 93 Z " /><path fill="rgb(223,216,210)" stroke="rgb(223,216,210)" stroke-width="1" opacity="0.09803921568627451" d="M 317.5 93 L 321 93.5 L 317.5 94 L 317.5 93 Z " /><path fill="rgb(223,216,210)" stroke="rgb(223,216,210)" stroke-width="1" opacity="0.09803921568627451" d="M 305.5 95 L 309 99.5 L 306 97.5 L 305.5 95 Z " /><path fill="rgb(223,216,210)" stroke="rgb(223,216,210)" stroke-width="1" opacity="0.09803921568627451" d="M 103.5 96 L 104 98.5 L 103 98.5 L 103.5 96 Z " /><path fill="rgb(223,216,210)" stroke="rgb(223,216,210)" stroke-width="1" opacity="0.09803921568627451" d="M 166.5 98 L 165.5 100 L 166.5 98 Z " /><path fill="rgb(223,216,210)" stroke="rgb(223,216,210)" stroke-width="1" opacity="0.09803921568627451" d="M 204.5 100 L 203.5 102 L 204.5 100 Z " /><path fill="rgb(223,216,210)" stroke="rgb(223,216,210)" stroke-width="1" opacity="0.09803921568627451" d="M 292.5 100 L 293.5 102 L 292.5 100 Z " /><path fill="rgb(223,216,210)" stroke="rgb(223,216,210)" stroke-width="1" opacity="0.09803921568627451" d="M 237.5 111 L 238 134.5 L 236 135.5 L 237 131.5 L 236 129.5 L 237 128.5 L 237.5 111 Z " /><path fill="rgb(223,216,210)" stroke="rgb(223,216,210)" stroke-width="1" opacity="0.09803921568627451" d="M 166.5 113 L 168.5 116 L 166.5 113 Z " /><path fill="rgb(223,216,210)" stroke="rgb(223,216,210)" stroke-width="1" opacity="0.09803921568627451" d="M 40.5 114 L 39.5 116 L 40.5 114 Z " /><path fill="rgb(223,216,210)" stroke="rgb(223,216,210)" stroke-width="1" opacity="0.09803921568627451" d="M 37.5 116 L 35.5 119 L 34 118.5 L 37.5 116 Z " /><path fill="rgb(223,216,210)" stroke="rgb(223,216,210)" stroke-width="1" opacity="0.09803921568627451" d="M 148.5 119 L 157 119.5 L 148.5 120 L 148.5 119 Z " /><path fill="rgb(223,216,210)" stroke="rgb(223,216,210)" stroke-width="1" opacity="0.09803921568627451" d="M 158.5 120 L 159.5 122 L 158.5 120 Z " /><path fill="rgb(223,216,210)" stroke="rgb(223,216,210)" stroke-width="1" opacity="0.09803921568627451" d="M 29.5 121 L 27.5 124 L 29.5 121 Z " /><path fill="rgb(223,216,210)" stroke="rgb(223,216,210)" stroke-width="1" opacity="0.09803921568627451" d="M 42.5 121 L 44 121.5 L 41.5 123 L 42.5 121 Z " /><path fill="rgb(223,216,210)" stroke="rgb(223,216,210)" stroke-width="1" opacity="0.09803921568627451" d="M 108.5 121 L 110 124.5 L 109 124.5 L 108.5 121 Z " /><path fill="rgb(223,216,210)" stroke="rgb(223,216,210)" stroke-width="1" opacity="0.09803921568627451" d="M 375.5 121 L 376 142.5 L 375 142.5 L 375.5 121 Z " /><path fill="rgb(223,216,210)" stroke="rgb(223,216,210)" stroke-width="1" opacity="0.09803921568627451" d="M 47.5 122 L 48.5 124 L 47.5 122 Z " /><path fill="rgb(223,216,210)" stroke="rgb(223,216,210)" stroke-width="1" opacity="0.09803921568627451" d="M 288.5 123 L 289.5 125 L 288.5 123 Z " /><path fill="rgb(223,216,210)" stroke="rgb(223,216,210)" stroke-width="1" opacity="0.09803921568627451" d="M 316.5 123 L 318 125.5 L 316 126.5 L 316.5 123 Z " /><path fill="rgb(223,216,210)" stroke="rgb(223,216,210)" stroke-width="1" opacity="0.09803921568627451" d="M 385.5 123 L 387 123.5 L 384.5 125 L 385.5 123 Z " /><path fill="rgb(223,216,210)" stroke="rgb(223,216,210)" stroke-width="1" opacity="0.09803921568627451" d="M 399.5 123 L 402 124.5 L 400.5 124 L 399.5 123 Z " /><path fill="rgb(223,216,210)" stroke="rgb(223,216,210)" stroke-width="1" opacity="0.09803921568627451" d="M 110.5 126 L 111 128.5 L 110 128.5 L 110.5 126 Z " /><path fill="rgb(223,216,210)" stroke="rgb(223,216,210)" stroke-width="1" opacity="0.09803921568627451" d="M 171 126 Q 174 125 173 128 Q 170 129 171 126 Z " /><path fill="rgb(223,216,210)" stroke="rgb(223,216,210)" stroke-width="1" opacity="0.09803921568627451" d="M 34.5 127 L 33.5 129 L 34.5 127 Z " /><path fill="rgb(223,216,210)" stroke="rgb(223,216,210)" stroke-width="1" opacity="0.09803921568627451" d="M 23.5 129 L 24 132.5 L 23 132.5 L 23.5 129 Z " /><path fill="rgb(223,216,210)" stroke="rgb(223,216,210)" stroke-width="1" opacity="0.09803921568627451" d="M 279.5 129 L 282 129.5 L 279.5 130 L 279.5 129 Z " /><path fill="rgb(223,216,210)" stroke="rgb(223,216,210)" stroke-width="1" opacity="0.09803921568627451" d="M 356.5 129 Q 361 128 362 130.5 L 360.5 130 Q 355.5 131 356.5 129 Z " /><path fill="rgb(223,216,210)" stroke="rgb(223,216,210)" stroke-width="1" opacity="0.09803921568627451" d="M 389.5 130 L 393 130.5 L 389.5 131 L 389.5 130 Z " /><path fill="rgb(223,216,210)" stroke="rgb(223,216,210)" stroke-width="1" opacity="0.09803921568627451" d="M 372.5 131 L 373 149.5 L 372 149.5 L 372.5 131 Z " /><path fill="rgb(223,216,210)" stroke="rgb(223,216,210)" stroke-width="1" opacity="0.09803921568627451" d="M 394.5 131 L 396.5 134 L 394.5 131 Z " /><path fill="rgb(223,216,210)" stroke="rgb(223,216,210)" stroke-width="1" opacity="0.09803921568627451" d="M 49.5 132 L 51 136.5 L 49 135.5 L 49.5 132 Z " /><path fill="rgb(223,216,210)" stroke="rgb(223,216,210)" stroke-width="1" opacity="0.09803921568627451" d="M 228.5 134 L 232 134.5 L 228.5 135 L 228.5 134 Z " /><path fill="rgb(223,216,210)" stroke="rgb(223,216,210)" stroke-width="1" opacity="0.09803921568627451" d="M 277.5 134 L 280 134.5 L 277.5 135 L 277.5 134 Z " /><path fill="rgb(223,216,210)" stroke="rgb(223,216,210)" stroke-width="1" opacity="0.09803921568627451" d="M 295.5 134 L 296 138.5 L 295 138.5 L 295.5 134 Z " /><path fill="rgb(223,216,210)" stroke="rgb(223,216,210)" stroke-width="1" opacity="0.09803921568627451" d="M 353.5 134 L 356 134.5 L 353.5 135 L 353.5 134 Z " /><path fill="rgb(223,216,210)" stroke="rgb(223,216,210)" stroke-width="1" opacity="0.09803921568627451" d="M 385.5 134 L 384.5 136 L 385.5 134 Z " /><path fill="rgb(223,216,210)" stroke="rgb(223,216,210)" stroke-width="1" opacity="0.09803921568627451" d="M 204.5 136 L 205 142.5 L 204 142.5 L 204.5 136 Z " /><path fill="rgb(223,216,210)" stroke="rgb(223,216,210)" stroke-width="1" opacity="0.09803921568627451" d="M 194.5 137 L 195 139.5 L 194 139.5 L 194.5 137 Z " /><path fill="rgb(223,216,210)" stroke="rgb(223,216,210)" stroke-width="1" opacity="0.09803921568627451" d="M 236.5 137 L 238 139.5 L 237.5 142 L 235.5 143 L 236 141.5 L 236.5 137 Z " /><path fill="rgb(223,216,210)" stroke="rgb(223,216,210)" stroke-width="1" opacity="0.09803921568627451" d="M 21.5 138 L 22 141.5 L 21 141.5 L 21.5 138 Z " /><path fill="rgb(223,216,210)" stroke="rgb(223,216,210)" stroke-width="1" opacity="0.09803921568627451" d="M 193.5 142 L 194 143.5 L 192 144.5 L 193.5 142 Z " /><path fill="rgb(223,216,210)" stroke="rgb(223,216,210)" stroke-width="1" opacity="0.09803921568627451" d="M 229.5 142 L 234 142.5 L 229.5 143 L 229.5 142 Z " /><path fill="rgb(223,216,210)" stroke="rgb(223,216,210)" stroke-width="1" opacity="0.09803921568627451" d="M 215.5 144 L 218 145.5 L 216.5 146 L 215.5 144 Z " /><path fill="rgb(223,216,210)" stroke="rgb(223,216,210)" stroke-width="1" opacity="0.09803921568627451" d="M 237.5 144 L 238 151.5 L 237 151.5 L 237.5 144 Z " /><path fill="rgb(223,216,210)" stroke="rgb(223,216,210)" stroke-width="1" opacity="0.09803921568627451" d="M 249.5 144 L 250.5 146 L 249.5 144 Z " /><path fill="rgb(223,216,210)" stroke="rgb(223,216,210)" stroke-width="1" opacity="0.09803921568627451" d="M 295.5 144 L 296 145.5 L 294 146.5 L 295.5 144 Z " /><path fill="rgb(223,216,210)" stroke="rgb(223,216,210)" stroke-width="1" opacity="0.09803921568627451" d="M 375.5 144 L 376 154.5 L 375 154.5 L 375.5 144 Z " /><path fill="rgb(223,216,210)" stroke="rgb(223,216,210)" stroke-width="1" opacity="0.09803921568627451" d="M 358.5 146 L 359 148 L 355 147.5 L 358.5 146 Z " /><path fill="rgb(223,216,210)" stroke="rgb(223,216,210)" stroke-width="1" opacity="0.09803921568627451" d="M 279.5 147 L 282 147.5 L 279.5 148 L 279.5 147 Z " /><path fill="rgb(223,216,210)" stroke="rgb(223,216,210)" stroke-width="1" opacity="0.09803921568627451" d="M 316.5 147 L 317.5 149 L 316.5 147 Z " /><path fill="rgb(223,216,210)" stroke="rgb(223,216,210)" stroke-width="1" opacity="0.09803921568627451" d="M 174.5 149 L 178.5 154 L 174.5 149 Z " /><path fill="rgb(223,216,210)" stroke="rgb(223,216,210)" stroke-width="1" opacity="0.09803921568627451" d="M 200.5 149 L 197.5 153 L 200.5 149 Z " /><path fill="rgb(223,216,210)" stroke="rgb(223,216,210)" stroke-width="1" opacity="0.09803921568627451" d="M 207.5 149 L 211.5 154 L 207.5 149 Z " /><path fill="rgb(223,216,210)" stroke="rgb(223,216,210)" stroke-width="1" opacity="0.09803921568627451" d="M 293.5 149 L 291.5 152 L 293.5 149 Z " /><path fill="rgb(223,216,210)" stroke="rgb(223,216,210)" stroke-width="1" opacity="0.09803921568627451" d="M 232.5 150 L 231.5 152 L 232.5 150 Z " /><path fill="rgb(223,216,210)" stroke="rgb(223,216,210)" stroke-width="1" opacity="0.09803921568627451" d="M 317.5 150 L 317 151.5 L 316.5 154 L 316 151.5 L 317.5 150 Z " /><path fill="rgb(223,216,210)" stroke="rgb(223,216,210)" stroke-width="1" opacity="0.09803921568627451" d="M 403.5 150 L 402.5 152 L 403.5 150 Z " /><path fill="rgb(223,216,210)" stroke="rgb(223,216,210)" stroke-width="1" opacity="0.09803921568627451" d="M 120.5 151 L 122 153.5 L 120 152.5 L 120.5 151 Z " /><path fill="rgb(223,216,210)" stroke="rgb(223,216,210)" stroke-width="1" opacity="0.09803921568627451" d="M 270.5 152 L 271.5 154 L 270.5 152 Z " /><path fill="rgb(223,216,210)" stroke="rgb(223,216,210)" stroke-width="1" opacity="0.09803921568627451" d="M 58.5 153 L 60.5 156 L 58.5 153 Z " /><path fill="rgb(223,216,210)" stroke="rgb(223,216,210)" stroke-width="1" opacity="0.09803921568627451" d="M 256.5 153 L 257.5 155 L 256.5 153 Z " /><path fill="rgb(223,216,210)" stroke="rgb(223,216,210)" stroke-width="1" opacity="0.09803921568627451" d="M 57.5 155 L 58.5 157 L 57.5 155 Z " /><path fill="rgb(223,216,210)" stroke="rgb(223,216,210)" stroke-width="1" opacity="0.09803921568627451" d="M 184.5 155 L 191 155.5 L 184.5 156 L 184.5 155 Z " /><path fill="rgb(223,216,210)" stroke="rgb(223,216,210)" stroke-width="1" opacity="0.09803921568627451" d="M 217.5 155 L 224 155.5 L 217.5 156 L 217.5 155 Z " /><path fill="rgb(223,216,210)" stroke="rgb(223,216,210)" stroke-width="1" opacity="0.09803921568627451" d="M 277.5 155 L 284 155.5 Q 283.3 157.8 279.5 157 L 277.5 155 Z " /><path fill="rgb(223,216,210)" stroke="rgb(223,216,210)" stroke-width="1" opacity="0.09803921568627451" d="M 307.5 155 L 311 155.5 L 307.5 156 L 307.5 155 Z " /><path fill="rgb(223,216,210)" stroke="rgb(223,216,210)" stroke-width="1" opacity="0.09803921568627451" d="M 312.5 155 L 315 155.5 L 312 157 L 312.5 155 Z " /><path fill="rgb(223,216,210)" stroke="rgb(223,216,210)" stroke-width="1" opacity="0.09803921568627451" d="M 352.5 155 L 359 155.5 L 355.5 157 L 352.5 156 L 352.5 155 Z " /><path fill="rgb(223,216,210)" stroke="rgb(223,216,210)" stroke-width="1" opacity="0.09803921568627451" d="M 391.5 155 L 395 155.5 L 391.5 156 L 391.5 155 Z " /><path fill="rgb(223,216,210)" stroke="rgb(223,216,210)" stroke-width="1" opacity="0.09803921568627451" d="M 67.5 163 L 68.5 165 L 67.5 163 Z " /><path fill="rgb(223,216,210)" stroke="rgb(223,216,210)" stroke-width="1" opacity="0.09803921568627451" d="M 36.5 164 L 35.5 166 L 36.5 164 Z " /><path fill="rgb(223,216,210)" stroke="rgb(223,216,210)" stroke-width="1" opacity="0.09803921568627451" d="M 129.5 167 L 130 170.5 L 129 170.5 L 129.5 167 Z " /><path fill="rgb(223,216,210)" stroke="rgb(223,216,210)" stroke-width="1" opacity="0.09803921568627451" d="M 33.5 168 L 32.5 170 L 33.5 168 Z " /><path fill="rgb(223,216,210)" stroke="rgb(223,216,210)" stroke-width="1" opacity="0.09803921568627451" d="M 78.5 170 L 77.5 172 L 78.5 170 Z " /><path fill="rgb(223,216,210)" stroke="rgb(223,216,210)" stroke-width="1" opacity="0.09803921568627451" d="M 84.5 172 L 85 177.5 L 84 177.5 L 84.5 172 Z " /><path fill="rgb(223,216,210)" stroke="rgb(223,216,210)" stroke-width="1" opacity="0.09803921568627451" d="M 30.5 173 L 30 174.5 L 29.5 176 L 29 174.5 L 30.5 173 Z " /><path fill="rgb(223,216,210)" stroke="rgb(223,216,210)" stroke-width="1" opacity="0.09803921568627451" d="M 37.5 176 L 36.5 178 L 37.5 176 Z " /><path fill="rgb(223,216,210)" stroke="rgb(223,216,210)" stroke-width="1" opacity="0.09803921568627451" d="M 67.5 179 L 68 183.5 L 67 183.5 L 67.5 179 Z " /><path fill="rgb(223,216,210)" stroke="rgb(223,216,210)" stroke-width="1" opacity="0.09803921568627451" d="M 32.5 180 L 33 182 L 28.5 185 L 32.5 180 Z " /><path fill="rgb(223,216,210)" stroke="rgb(223,216,210)" stroke-width="1" opacity="0.09803921568627451" d="M 106.5 181 L 113.5 181 L 114 182.5 L 112.5 182 L 106.5 182 L 106.5 181 Z " /><path fill="rgb(223,216,210)" stroke="rgb(223,216,210)" stroke-width="1" opacity="0.09803921568627451" d="M 33.5 185 L 32.5 187 L 33.5 185 Z " /><path fill="rgb(223,216,210)" stroke="rgb(223,216,210)" stroke-width="1" opacity="0.09803921568627451" d="M 82.5 190 L 83 192.5 L 82 192.5 L 82.5 190 Z " /><path fill="rgb(223,216,210)" stroke="rgb(223,216,210)" stroke-width="1" opacity="0.09803921568627451" d="M 29.5 192 L 30 193.5 L 28 194.5 L 29.5 192 Z " /><path fill="rgb(223,216,210)" stroke="rgb(223,216,210)" stroke-width="1" opacity="0.09803921568627451" d="M 63.5 194 L 63 195.5 L 59.5 200 L 62 196.5 L 63.5 194 Z " /><path fill="rgb(223,216,210)" stroke="rgb(223,216,210)" stroke-width="1" opacity="0.09803921568627451" d="M 81.5 194 L 84.5 198 L 81.5 194 Z " /><path fill="rgb(223,216,210)" stroke="rgb(223,216,210)" stroke-width="1" opacity="0.09803921568627451" d="M 53.5 195 L 54 197.5 L 53 197.5 L 53.5 195 Z " /><path fill="rgb(223,216,210)" stroke="rgb(223,216,210)" stroke-width="1" opacity="0.09803921568627451" d="M 88.5 196 L 87.5 198 L 88.5 196 Z " /><path fill="rgb(223,216,210)" stroke="rgb(223,216,210)" stroke-width="1" opacity="0.09803921568627451" d="M 25.5 201 L 26 203.5 L 25 203.5 L 25.5 201 Z " /><path fill="rgb(223,216,210)" stroke="rgb(223,216,210)" stroke-width="1" opacity="0.09803921568627451" d="M 44.5 203 L 46 203.5 L 41.5 207 L 44.5 203 Z " /><path fill="rgb(223,216,210)" stroke="rgb(223,216,210)" stroke-width="1" opacity="0.09803921568627451" d="M 38.5 208 L 37.5 210 L 36 209.5 L 38.5 208 Z " /><path fill="rgb(223,216,210)" stroke="rgb(223,216,210)" stroke-width="1" opacity="0.09803921568627451" d="M 30.5 213 L 29.5 215 L 28 214.5 L 30.5 213 Z " /><path fill="rgb(223,216,210)" stroke="rgb(223,216,210)" stroke-width="1" opacity="0.09803921568627451" d="M 26.5 215 L 25.5 217 L 24 216.5 L 26.5 215 Z " /><path fill="rgb(0,0,0)" stroke="rgb(0,0,0)" stroke-width="1" opacity="0" d="M 0 0 L 427 0 L 427 225 L 0 225 L 0 0 Z M 99 2 L 94 4 L 92 10 L 93 13 L 90 23 L 91 24 L 88 27 Q 89 29 86 28 L 86 30 L 84 30 L 84 33 L 83 32 L 79 35 Q 76 34 77 37 L 68 45 Q 69 47 66 46 L 66 48 L 64 48 L 60 55 Q 61 57 58 56 L 58 59 L 54 65 L 53 71 L 51 73 L 52 75 L 49 83 L 49 85 Q 50 88 48 87 L 49 90 L 48 92 Q 47 96 49 98 L 48 108 L 45 110 Q 42 109 43 112 Q 38 118 30 121 L 23 130 L 24 134 L 21 139 Q 23 145 19 145 L 19 152 L 23 154 L 35 151 Q 39 152 38 150 L 40 150 L 47 148 Q 48 151 45 150 L 45 157 Q 48 156 47 159 L 37 164 Q 29 171 26 184 Q 24 185 27 186 L 32 182 Q 34 183 33 180 L 35 180 L 35 178 L 37 179 Q 25 195 21 218 Q 35 214 45 204 Q 47 205 46 202 L 48 202 L 48 200 L 50 200 L 50 198 L 52 198 L 53 196 L 53 203 L 55 202 L 58 202 Q 57 199 60 200 L 66 191 L 68 184 L 68 177 L 74 174 L 76 174 L 79 169 L 84 171 L 84 179 L 85 180 L 83 187 L 84 190 L 82 190 L 81 195 Q 82 199 88 198 L 93 191 L 98 188 Q 97 185 100 186 Q 103 185 102 181 L 107 180 L 106 182 L 114 183 L 114 181 L 119 180 L 124 180 L 126 176 L 128 176 L 130 171 L 129 167 Q 130 163 128 164 Q 129 162 126 161 Q 127 158 124 159 L 115 141 L 115 138 L 113 136 L 113 132 L 111 130 L 108 117 L 107 117 L 107 116 L 104 102 L 104 100 L 103 89 L 102 88 L 102 70 L 103 69 Q 105 63 102 62 L 104 62 L 103 57 L 104 55 L 105 52 L 104 49 L 106 49 L 108 39 Q 111 37 109 36 L 115 27 Q 114 23 117 24 L 119 21 L 119 19 L 121 19 L 121 13 L 119 13 L 120 11 L 114 5 L 104 2 L 102 3 L 99 2 Z M 138 54 L 138 81 L 138 83 L 138 100 L 137 101 L 139 102 L 160 102 L 161 100 L 163 101 Q 164 97 166 100 L 170 95 L 170 93 L 173 91 L 176 100 L 185 103 L 189 102 L 191 102 L 194 100 Q 197 99 196 102 L 204 102 L 205 101 L 204 100 L 204 81 L 203 80 L 203 74 L 201 73 L 201 72 L 195 67 L 191 68 L 183 67 L 181 70 L 180 69 L 176 73 L 175 79 L 177 78 Q 182 77 184 79 L 187 75 L 193 76 L 194 79 L 193 80 Q 183 79 178 82 Q 173 84 173 90 Q 169 91 171 85 L 169 81 Q 170 78 168 79 L 166 77 L 169 74 L 168 73 L 170 70 L 169 65 L 169 61 Q 166 62 167 60 L 162 56 L 160 56 L 158 55 L 141 55 L 138 54 Z M 288 66 L 283 70 Q 280 71 281 67 L 274 67 L 273 68 L 273 102 L 282 102 L 282 79 L 287 76 L 291 77 L 294 83 L 294 101 L 294 102 L 303 102 L 303 78 L 303 76 L 300 71 L 296 67 L 291 68 L 288 66 Z M 207 67 L 207 98 L 206 99 L 207 102 L 216 102 L 216 79 L 222 76 L 226 77 L 227 80 L 228 99 L 227 102 L 237 102 L 237 77 L 236 73 L 230 67 L 226 68 L 224 67 Q 218 65 219 69 L 218 68 L 217 70 L 216 69 L 215 67 L 207 67 Z M 249 67 L 246 69 L 241 77 L 248 79 L 250 78 Q 253 79 251 75 L 258 75 Q 261 76 260 80 Q 249 78 244 82 L 239 89 L 239 94 L 242 100 L 246 101 L 248 101 L 251 103 L 253 103 L 259 101 L 260 99 L 262 98 L 261 100 L 262 102 Q 269 104 271 100 L 269 99 Q 272 96 271 91 L 270 88 Q 268 81 271 80 Q 272 76 269 77 Q 270 73 268 72 Q 265 73 266 71 L 262 67 Q 256 66 255 68 Q 253 66 249 67 Z M 315 67 L 312 69 Q 309 68 310 72 L 308 73 Q 305 74 306 79 L 308 78 Q 313 77 315 79 L 316 77 Q 317 74 323 75 Q 326 76 325 80 Q 314 78 308 83 L 305 88 L 306 90 L 305 89 L 304 93 L 306 93 L 305 95 L 306 98 Q 309 103 317 103 L 319 103 L 327 99 Q 329 100 327 102 L 335 102 L 336 99 L 334 96 L 334 81 L 335 80 Q 336 75 333 74 L 333 71 Q 330 72 331 69 Q 328 70 327 67 Q 321 66 320 68 L 315 67 Z M 293 89 L 292 92 L 293 92 L 293 89 Z M 293 93 L 292 99 L 293 99 L 293 93 Z M 139 110 L 138 153 L 137 154 L 138 156 L 143 155 L 148 155 L 148 140 L 153 139 L 155 145 Q 158 146 156 148 L 162 156 Q 168 157 171 155 Q 172 151 169 150 Q 170 146 167 147 L 164 137 L 166 137 L 171 131 Q 170 127 173 128 L 172 125 L 172 123 L 171 119 L 169 117 L 169 116 Q 167 111 166 114 L 165 112 L 161 111 L 159 111 L 140 111 L 139 110 Z M 247 110 L 246 111 L 237 111 L 237 129 L 236 130 L 237 135 L 236 138 L 237 155 Q 240 157 247 156 L 248 154 L 246 144 L 250 143 Q 252 144 250 146 L 252 149 L 257 152 L 256 154 Q 259 158 267 156 Q 268 151 264 150 Q 265 147 262 148 L 260 144 Q 261 141 257 142 L 257 139 L 255 139 Q 254 136 257 135 Q 256 132 259 133 L 259 131 L 261 131 L 262 128 L 266 125 L 266 122 Q 264 125 258 123 L 256 123 Q 257 125 254 124 L 254 126 L 253 126 L 253 128 L 249 131 Q 250 134 247 133 L 247 110 Z M 329 110 Q 327 113 321 111 L 319 115 L 319 123 L 320 124 L 319 125 L 319 133 L 320 138 L 319 145 L 319 147 L 319 155 L 321 156 Q 327 158 329 155 L 341 156 L 343 156 L 343 146 L 329 146 L 329 139 L 329 137 L 329 110 Z M 384 110 Q 382 113 377 111 L 375 113 L 376 116 L 375 121 L 375 155 Q 377 158 383 156 Q 385 155 383 154 L 384 152 L 390 156 L 399 155 L 402 153 L 406 147 Q 404 145 407 144 L 406 142 L 408 137 L 406 136 L 407 134 L 405 128 Q 404 125 403 127 L 402 125 L 401 123 L 391 121 L 388 123 L 385 122 L 385 111 L 384 110 Z M 301 116 Q 298 121 301 123 L 296 123 L 296 130 L 295 131 L 301 131 L 300 139 L 300 141 L 301 144 L 300 148 L 303 154 L 306 155 L 308 154 L 307 156 L 313 157 L 316 156 L 317 152 L 318 149 Q 317 146 312 147 L 309 145 L 309 132 L 310 131 L 315 131 L 315 127 L 318 126 L 317 123 L 316 126 L 315 126 L 315 123 L 309 123 L 309 117 L 307 117 L 305 117 L 301 116 Z M 217 121 L 209 125 L 204 136 L 203 134 L 203 130 L 201 130 L 201 127 Q 198 128 199 125 L 197 125 L 193 122 Q 182 121 178 125 L 176 125 L 176 127 Q 173 126 174 129 L 174 131 L 173 130 L 171 136 L 172 145 L 172 147 L 174 150 Q 177 155 185 156 L 191 156 L 198 153 L 203 147 Q 202 142 205 143 L 207 150 Q 211 157 224 156 L 226 156 L 230 154 Q 236 150 236 142 L 227 142 L 226 144 L 226 146 L 224 146 L 217 145 L 213 141 Q 213 133 219 130 L 224 131 L 226 135 L 229 135 Q 234 136 235 134 L 234 129 L 229 123 L 218 122 L 217 121 Z M 278 121 L 271 125 Q 268 124 269 128 L 267 128 L 267 131 L 265 131 L 265 138 L 264 139 Q 267 140 265 147 L 267 150 L 275 155 L 277 155 L 280 157 L 283 157 L 291 153 L 294 150 L 296 145 L 295 145 Q 288 147 287 144 L 286 146 L 283 147 Q 276 148 274 144 L 275 141 L 296 141 Q 297 134 294 132 Q 295 128 292 129 L 289 123 L 287 124 L 284 122 L 278 121 Z M 355 122 L 354 123 Q 349 121 350 125 L 348 126 L 348 128 L 347 130 L 345 131 L 352 133 L 354 133 L 356 130 Q 362 129 364 133 Q 365 136 363 135 L 361 135 L 358 134 L 354 134 L 349 136 L 347 139 L 345 140 L 345 142 Q 347 148 344 150 L 347 151 L 346 153 L 356 157 L 364 153 Q 366 152 365 155 L 369 156 L 371 155 L 373 156 L 374 153 L 373 152 L 373 131 L 371 128 Q 372 125 369 126 L 369 124 L 365 122 Q 360 121 359 123 L 355 122 Z " /><path fill="rgb(0,0,0)" stroke="rgb(0,0,0)" stroke-width="1" opacity="0" d="M 148 64 Q 155.6 62.9 159 65 L 160 69.5 L 157.5 73 L 148 73 L 148 64 Z " /><path fill="rgb(0,0,0)" stroke="rgb(0,0,0)" stroke-width="1" opacity="0" d="M 149.5 82 L 160 83 L 162 87.5 L 161 91 L 158.5 92 L 148 92 L 148 83.5 L 149.5 82 Z " /><path fill="rgb(0,0,0)" stroke="rgb(0,0,0)" stroke-width="1" opacity="0" d="M 189.5 87 Q 195.3 84.9 194 89.5 L 190.5 93 Q 185.8 91.7 184.5 94 L 184 88 L 189.5 87 Z " /><path fill="rgb(0,0,0)" stroke="rgb(0,0,0)" stroke-width="1" opacity="0" d="M 251.5 87 L 254.5 88 L 258.5 87 L 260 91 Q 256.9 90.3 257.5 93 L 251.5 93 L 250 93.5 L 249 90.5 L 251.5 87 Z " /><path fill="rgb(0,0,0)" stroke="rgb(0,0,0)" stroke-width="1" opacity="0" d="M 316.5 87 L 319.5 88 L 326 87 L 322.5 93 Q 315.5 94.5 316 91.5 L 315 90.5 Q 318.1 88.8 316.5 87 Z " /><path fill="rgb(0,0,0)" stroke="rgb(0,0,0)" stroke-width="1" opacity="0" d="M 44 120 L 48 121.5 Q 45.5 123 49 124.5 Q 48.3 127.1 51 126 L 51 129 L 49 129.5 L 50 131.5 L 49 135.5 Q 52.5 137 50 138.5 L 49.5 141 L 47.5 140 L 42.5 142 L 41 141.5 L 40.5 143 L 37.5 142 L 29.5 145 L 29 140.5 L 32 130.5 L 36.5 126 L 44 122 L 44 120 Z " /><path fill="rgb(0,0,0)" stroke="rgb(0,0,0)" stroke-width="1" opacity="0" d="M 148.5 120 L 150.5 120 Q 158.3 118.3 160 122.5 L 161 124.5 L 161 126.5 L 157.5 130 L 148 130 L 148.5 120 Z " /><path fill="rgb(0,0,0)" stroke="rgb(0,0,0)" stroke-width="1" opacity="0" d="M 278.5 130 Q 284.3 129.2 286 132.5 L 287 134.5 L 284.5 135 Q 282.8 132.3 276.5 134 L 275 132.5 L 278.5 130 Z " /><path fill="rgb(0,0,0)" stroke="rgb(0,0,0)" stroke-width="1" opacity="0" d="M 388.5 130 L 393.5 131 L 396 133.5 L 398 140.5 L 395.5 145 L 390.5 147 L 386 145 Q 384.1 142.3 385 135.5 L 388.5 130 Z " /><path fill="rgb(0,0,0)" stroke="rgb(0,0,0)" stroke-width="1" opacity="0" d="M 184.5 131 Q 191.5 129.5 193 133.5 L 195 141.5 L 193 142 L 191.5 145 L 185.5 146 L 180 141.5 L 180 139.5 L 182 132 L 184.5 131 Z " /><path fill="rgb(0,0,0)" stroke="rgb(0,0,0)" stroke-width="1" opacity="0" d="M 203.5 138 L 204 141.5 L 203 141.5 L 203.5 138 Z " /><path fill="rgb(0,0,0)" stroke="rgb(0,0,0)" stroke-width="1" opacity="0" d="M 358.5 141 Q 365.8 138.8 364 144 L 361 145.5 Q 361.8 147.8 359.5 147 L 357.5 147 L 354 145.5 L 355.5 142 L 358.5 141 Z " /><path fill="rgb(0,0,0)" stroke="rgb(0,0,0)" stroke-width="1" opacity="0" d="M 315.5 148 L 316 150.5 L 315 150.5 L 315.5 148 Z " /><path fill="rgb(0,0,0)" stroke="rgb(0,0,0)" stroke-width="1" opacity="0" d="M 54.5 151 L 62 156 Q 60.9 158.7 63.5 158 L 66 159 Q 64.9 161.7 67.5 161 L 71.5 164 L 73.5 163 L 73.5 164 L 69 166 L 67.5 163 L 54 152.5 L 54.5 151 Z " /><path fill="rgb(0,0,0)" stroke="rgb(0,0,0)" stroke-width="1" opacity="0" d="M 92 178 L 96 178 L 96 179.5 L 94.5 182 L 93 181.5 L 90.5 186 L 91 184.5 L 92 178 Z " /><path fill="rgb(243,167,42)" stroke="rgb(243,167,42)" stroke-width="1" opacity="0.996078431372549" d="M 100.5 9 Q 102.8 11.7 108.5 11 L 113 14.5 L 112 19 Q 109.3 17.9 110 20.5 L 106 24.5 L 102 32.5 L 98 47.5 L 96 58.5 L 95 83.5 L 96 84.5 L 96 95.5 L 97 96.5 L 98 108.5 L 104 131.5 L 112 151.5 L 120 165.5 L 120 171 L 115 170 L 114 174 L 105.5 174 L 98.5 172 Q 85.5 166.5 77 156.5 Q 65.2 144.3 59 126.5 L 55 107.5 L 55 88.5 L 57 77.5 L 61 66.5 L 71 51 Q 73.7 52.1 73 49.5 L 77 47 Q 75.9 44.3 78.5 45 L 94 31.5 L 98 24.5 L 99 10.5 L 100.5 9 Z M 90 47 L 81 59 L 77 69 L 74 82 L 74 103 L 77 119 L 88 144 L 98 157 L 108 164 L 109 164 Q 86 143 79 106 L 79 77 Q 82 60 90 49 L 90 47 Z " /><path fill="rgb(243,167,42)" stroke="rgb(243,167,42)" stroke-width="1" opacity="0.996078431372549" d="M 45.5 160 L 50.5 160 L 68 173.5 L 68 175.5 L 65 190.5 L 56.5 201 L 53 202 L 54 194.5 L 42.5 205 Q 37 211.4 28 213 Q 29.1 215.7 26.5 215 L 22 217 L 26 201.5 L 38 176.5 L 35.5 178 L 27.5 184 L 27 182.5 Q 30.6 169.1 40.5 162 L 45.5 160 Z " /><path fill="rgb(110,114,118)" stroke="rgb(110,114,118)" stroke-width="1" opacity="0.24705882352941178" d="M 96.5 3 L 99 3.5 L 94.5 6 L 96.5 3 Z " /><path fill="rgb(110,114,118)" stroke="rgb(110,114,118)" stroke-width="1" opacity="0.24705882352941178" d="M 104.5 3 L 108 3.5 L 104.5 4 L 104.5 3 Z " /><path fill="rgb(110,114,118)" stroke="rgb(110,114,118)" stroke-width="1" opacity="0.24705882352941178" d="M 114.5 6 L 115.5 8 L 114.5 6 Z " /><path fill="rgb(110,114,118)" stroke="rgb(110,114,118)" stroke-width="1" opacity="0.24705882352941178" d="M 91.5 16 L 92 19.5 L 91 19.5 L 91.5 16 Z " /><path fill="rgb(110,114,118)" stroke="rgb(110,114,118)" stroke-width="1" opacity="0.24705882352941178" d="M 114.5 25 L 112.5 28 L 114.5 25 Z " /><path fill="rgb(110,114,118)" stroke="rgb(110,114,118)" stroke-width="1" opacity="0.24705882352941178" d="M 87.5 28 L 86.5 30 L 87.5 28 Z " /><path fill="rgb(110,114,118)" stroke="rgb(110,114,118)" stroke-width="1" opacity="0.24705882352941178" d="M 111.5 29 L 112 30.5 L 110 31.5 L 111.5 29 Z " /><path fill="rgb(110,114,118)" stroke="rgb(110,114,118)" stroke-width="1" opacity="0.24705882352941178" d="M 81.5 33 L 80.5 35 L 75.5 39 L 79.5 34 L 81.5 33 Z " /><path fill="rgb(110,114,118)" stroke="rgb(110,114,118)" stroke-width="1" opacity="0.24705882352941178" d="M 106.5 41 L 107 44.5 L 105.5 47 L 105 45.5 L 106.5 41 Z " /><path fill="rgb(110,114,118)" stroke="rgb(110,114,118)" stroke-width="1" opacity="0.24705882352941178" d="M 66.5 47 L 65.5 49 L 66.5 47 Z " /><path fill="rgb(110,114,118)" stroke="rgb(110,114,118)" stroke-width="1" opacity="0.24705882352941178" d="M 104.5 49 L 105 51.5 L 104 51.5 L 104.5 49 Z " /><path fill="rgb(110,114,118)" stroke="rgb(110,114,118)" stroke-width="1" opacity="0.24705882352941178" d="M 62.5 52 L 61.5 54 L 62.5 52 Z " /><path fill="rgb(110,114,118)" stroke="rgb(110,114,118)" stroke-width="1" opacity="0.24705882352941178" d="M 139.5 54 L 140.5 55 L 158 55.5 L 138.5 56 L 139.5 54 Z " /><path fill="rgb(110,114,118)" stroke="rgb(110,114,118)" stroke-width="1" opacity="0.24705882352941178" d="M 60.5 55 L 59 57.5 L 57.5 60 L 58 58.5 L 60.5 55 Z " /><path fill="rgb(110,114,118)" stroke="rgb(110,114,118)" stroke-width="1" opacity="0.24705882352941178" d="M 165.5 58 L 166.5 60 L 165.5 58 Z " /><path fill="rgb(110,114,118)" stroke="rgb(110,114,118)" stroke-width="1" opacity="0.24705882352941178" d="M 102.5 62 L 103 68.5 L 102 68.5 L 102.5 62 Z " /><path fill="rgb(110,114,118)" stroke="rgb(110,114,118)" stroke-width="1" opacity="0.24705882352941178" d="M 147.5 64 L 148 73.5 L 147 73.5 L 147.5 64 Z " /><path fill="rgb(110,114,118)" stroke="rgb(110,114,118)" stroke-width="1" opacity="0.24705882352941178" d="M 157.5 64 L 161 66.5 L 160.5 71 L 159 65 L 157.5 64 Z " /><path fill="rgb(110,114,118)" stroke="rgb(110,114,118)" stroke-width="1" opacity="0.24705882352941178" d="M 169.5 65 L 170 69.5 L 169 69.5 L 169.5 65 Z " /><path fill="rgb(110,114,118)" stroke="rgb(110,114,118)" stroke-width="1" opacity="0.24705882352941178" d="M 182.5 67 L 181.5 69 L 182.5 67 Z " /><path fill="rgb(110,114,118)" stroke="rgb(110,114,118)" stroke-width="1" opacity="0.24705882352941178" d="M 186.5 67 L 189 67.5 L 186.5 68 L 186.5 67 Z " /><path fill="rgb(110,114,118)" stroke="rgb(110,114,118)" stroke-width="1" opacity="0.24705882352941178" d="M 207.5 67 L 208 100 Q 205.3 101.1 206 98.5 L 207 97.5 L 207.5 67 Z " /><path fill="rgb(110,114,118)" stroke="rgb(110,114,118)" stroke-width="1" opacity="0.24705882352941178" d="M 229.5 67 L 230.5 69 L 229.5 67 Z " /><path fill="rgb(110,114,118)" stroke="rgb(110,114,118)" stroke-width="1" opacity="0.24705882352941178" d="M 285.5 67 L 286 69 L 283.5 70 L 285.5 67 Z " /><path fill="rgb(110,114,118)" stroke="rgb(110,114,118)" stroke-width="1" opacity="0.24705882352941178" d="M 295.5 67 L 297.5 70 L 295.5 67 Z " /><path fill="rgb(110,114,118)" stroke="rgb(110,114,118)" stroke-width="1" opacity="0.24705882352941178" d="M 196.5 68 L 197.5 70 L 196.5 68 Z " /><path fill="rgb(110,114,118)" stroke="rgb(110,114,118)" stroke-width="1" opacity="0.24705882352941178" d="M 219.5 68 L 218.5 70 L 219.5 68 Z " /><path fill="rgb(110,114,118)" stroke="rgb(110,114,118)" stroke-width="1" opacity="0.24705882352941178" d="M 247.5 68 L 246.5 70 L 247.5 68 Z " /><path fill="rgb(110,114,118)" stroke="rgb(110,114,118)" stroke-width="1" opacity="0.24705882352941178" d="M 312.5 68 L 314 68.5 L 310.5 70 L 310.5 69 L 312.5 68 Z " /><path fill="rgb(110,114,118)" stroke="rgb(110,114,118)" stroke-width="1" opacity="0.24705882352941178" d="M 329.5 69 L 331.5 72 L 329.5 69 Z " /><path fill="rgb(110,114,118)" stroke="rgb(110,114,118)" stroke-width="1" opacity="0.24705882352941178" d="M 178.5 70 L 177.5 72 L 178.5 70 Z " /><path fill="rgb(110,114,118)" stroke="rgb(110,114,118)" stroke-width="1" opacity="0.24705882352941178" d="M 244.5 70 L 243.5 72 L 244.5 70 Z " /><path fill="rgb(110,114,118)" stroke="rgb(110,114,118)" stroke-width="1" opacity="0.24705882352941178" d="M 281.5 70 L 282 72 L 280 71.5 L 281.5 70 Z " /><path fill="rgb(110,114,118)" stroke="rgb(110,114,118)" stroke-width="1" opacity="0.24705882352941178" d="M 300.5 72 L 303 75.5 L 301 76.5 L 300.5 72 Z " /><path fill="rgb(110,114,118)" stroke="rgb(110,114,118)" stroke-width="1" opacity="0.24705882352941178" d="M 256.5 74 L 259 75.5 L 257.5 75 L 256.5 74 Z " /><path fill="rgb(110,114,118)" stroke="rgb(110,114,118)" stroke-width="1" opacity="0.24705882352941178" d="M 268.5 74 L 269 76.5 L 268 76.5 L 268.5 74 Z " /><path fill="rgb(110,114,118)" stroke="rgb(110,114,118)" stroke-width="1" opacity="0.24705882352941178" d="M 307.5 74 L 307 75.5 L 306.5 77 L 306 75.5 L 307.5 74 Z " /><path fill="rgb(110,114,118)" stroke="rgb(110,114,118)" stroke-width="1" opacity="0.24705882352941178" d="M 317.5 74 L 315 77.5 L 314.5 79 L 314 77.5 L 317.5 74 Z " /><path fill="rgb(110,114,118)" stroke="rgb(110,114,118)" stroke-width="1" opacity="0.24705882352941178" d="M 322.5 74 L 323.5 76 L 322.5 74 Z " /><path fill="rgb(110,114,118)" stroke="rgb(110,114,118)" stroke-width="1" opacity="0.24705882352941178" d="M 202.5 75 L 203 77.5 L 202 77.5 L 202.5 75 Z " /><path fill="rgb(110,114,118)" stroke="rgb(110,114,118)" stroke-width="1" opacity="0.24705882352941178" d="M 163.5 76 L 170 81.5 L 165.5 78 Q 161.5 79 163.5 76 Z " /><path fill="rgb(110,114,118)" stroke="rgb(110,114,118)" stroke-width="1" opacity="0.24705882352941178" d="M 224.5 76 L 227 77.5 L 228 79.5 L 228 92.5 L 227 92.5 L 227 79.5 L 226 77 L 224.5 76 Z " /><path fill="rgb(110,114,118)" stroke="rgb(110,114,118)" stroke-width="1" opacity="0.24705882352941178" d="M 236.5 76 L 237 99.5 L 236 99.5 L 236.5 76 Z " /><path fill="rgb(110,114,118)" stroke="rgb(110,114,118)" stroke-width="1" opacity="0.24705882352941178" d="M 284.5 76 L 284 77.5 Q 284.8 79.8 282.5 79 L 284.5 76 Z " /><path fill="rgb(110,114,118)" stroke="rgb(110,114,118)" stroke-width="1" opacity="0.24705882352941178" d="M 291.5 76 L 292.5 78 L 291.5 76 Z " /><path fill="rgb(110,114,118)" stroke="rgb(110,114,118)" stroke-width="1" opacity="0.24705882352941178" d="M 194.5 78 L 195 79.5 L 193 80.5 L 194.5 78 Z " /><path fill="rgb(110,114,118)" stroke="rgb(110,114,118)" stroke-width="1" opacity="0.24705882352941178" d="M 293.5 79 L 294 81.5 L 293 81.5 L 293.5 79 Z " /><path fill="rgb(110,114,118)" stroke="rgb(110,114,118)" stroke-width="1" opacity="0.24705882352941178" d="M 325.5 79 L 324.5 81 L 325.5 79 Z " /><path fill="rgb(110,114,118)" stroke="rgb(110,114,118)" stroke-width="1" opacity="0.24705882352941178" d="M 302.5 80 L 303 100.5 Q 301.3 103.8 294.5 102 L 294.5 101 L 302 101 L 302.5 80 Z " /><path fill="rgb(110,114,118)" stroke="rgb(110,114,118)" stroke-width="1" opacity="0.24705882352941178" d="M 315.5 80 L 318 80.5 L 315.5 81 L 315.5 80 Z " /><path fill="rgb(110,114,118)" stroke="rgb(110,114,118)" stroke-width="1" opacity="0.24705882352941178" d="M 311.5 81 L 314 81.5 L 311.5 82 L 311.5 81 Z " /><path fill="rgb(110,114,118)" stroke="rgb(110,114,118)" stroke-width="1" opacity="0.24705882352941178" d="M 147 82 L 149 82.5 L 148 83.5 L 148 92 L 158.5 92 L 159.5 91 L 158.5 93 L 147 93 L 147 82 Z " /><path fill="rgb(110,114,118)" stroke="rgb(110,114,118)" stroke-width="1" opacity="0.24705882352941178" d="M 159.5 82 L 161.5 85 L 159.5 82 Z " /><path fill="rgb(110,114,118)" stroke="rgb(110,114,118)" stroke-width="1" opacity="0.24705882352941178" d="M 177.5 82 L 176.5 84 L 177.5 82 Z " /><path fill="rgb(110,114,118)" stroke="rgb(110,114,118)" stroke-width="1" opacity="0.24705882352941178" d="M 244.5 82 L 243.5 84 L 241.5 85 L 242.5 83 L 244.5 82 Z " /><path fill="rgb(110,114,118)" stroke="rgb(110,114,118)" stroke-width="1" opacity="0.24705882352941178" d="M 309.5 82 L 308.5 84 L 309.5 82 Z " /><path fill="rgb(110,114,118)" stroke="rgb(110,114,118)" stroke-width="1" opacity="0.24705882352941178" d="M 203.5 85 L 204 88.5 L 203 88.5 L 203.5 85 Z " /><path fill="rgb(110,114,118)" stroke="rgb(110,114,118)" stroke-width="1" opacity="0.24705882352941178" d="M 306.5 85 L 307 86.5 L 305.5 89 L 305 87.5 L 306.5 85 Z " /><path fill="rgb(110,114,118)" stroke="rgb(110,114,118)" stroke-width="1" opacity="0.24705882352941178" d="M 191.5 86 L 195 87.5 L 193.5 91 L 194 89.5 Q 195.3 85.8 191.5 87 L 191.5 86 Z " /><path fill="rgb(110,114,118)" stroke="rgb(110,114,118)" stroke-width="1" opacity="0.24705882352941178" d="M 258.5 86 Q 261.8 84.9 261 87.5 L 259.5 87 L 258.5 86 Z " /><path fill="rgb(110,114,118)" stroke="rgb(110,114,118)" stroke-width="1" opacity="0.24705882352941178" d="M 102.5 88 L 103 96.5 L 102 96.5 L 102.5 88 Z " /><path fill="rgb(110,114,118)" stroke="rgb(110,114,118)" stroke-width="1" opacity="0.24705882352941178" d="M 250.5 88 L 249.5 90 L 250.5 88 Z " /><path fill="rgb(110,114,118)" stroke="rgb(110,114,118)" stroke-width="1" opacity="0.24705882352941178" d="M 173.5 89 L 174 91.5 L 172.5 91 L 171 90.5 L 173.5 89 Z " /><path fill="rgb(110,114,118)" stroke="rgb(110,114,118)" stroke-width="1" opacity="0.24705882352941178" d="M 325.5 90 L 323.5 93 L 325.5 90 Z " /><path fill="rgb(110,114,118)" stroke="rgb(110,114,118)" stroke-width="1" opacity="0.24705882352941178" d="M 48.5 91 L 49 96.5 L 48 96.5 L 48.5 91 Z " /><path fill="rgb(110,114,118)" stroke="rgb(110,114,118)" stroke-width="1" opacity="0.24705882352941178" d="M 258 91 L 260 91.5 L 256.5 94 L 256.5 93 Q 259.1 93.7 258 91 Z " /><path fill="rgb(110,114,118)" stroke="rgb(110,114,118)" stroke-width="1" opacity="0.24705882352941178" d="M 315.5 91 L 317 93.5 L 315 92.5 L 315.5 91 Z " /><path fill="rgb(110,114,118)" stroke="rgb(110,114,118)" stroke-width="1" opacity="0.24705882352941178" d="M 203.5 93 L 204 98.5 L 203 98.5 L 203.5 93 Z " /><path fill="rgb(110,114,118)" stroke="rgb(110,114,118)" stroke-width="1" opacity="0.24705882352941178" d="M 168.5 96 L 167.5 98 L 168.5 96 Z " /><path fill="rgb(110,114,118)" stroke="rgb(110,114,118)" stroke-width="1" opacity="0.24705882352941178" d="M 241.5 97 L 243.5 100 L 241.5 97 Z " /><path fill="rgb(110,114,118)" stroke="rgb(110,114,118)" stroke-width="1" opacity="0.24705882352941178" d="M 194.5 98 Q 197.1 97.3 196 100 L 191.5 101 L 191.5 100 L 194.5 98 Z " /><path fill="rgb(110,114,118)" stroke="rgb(110,114,118)" stroke-width="1" opacity="0.24705882352941178" d="M 259.5 99 L 258.5 101 L 257 100.5 L 259.5 99 Z " /><path fill="rgb(110,114,118)" stroke="rgb(110,114,118)" stroke-width="1" opacity="0.24705882352941178" d="M 324.5 99 L 323.5 101 L 318.5 103 L 316.5 103 L 312 101.5 L 321.5 101 L 324.5 99 Z " /><path fill="rgb(110,114,118)" stroke="rgb(110,114,118)" stroke-width="1" opacity="0.24705882352941178" d="M 179.5 100 L 180.5 101 L 189 101.5 L 184.5 103 L 180.5 102 L 179.5 100 Z " /><path fill="rgb(110,114,118)" stroke="rgb(110,114,118)" stroke-width="1" opacity="0.24705882352941178" d="M 335.5 100 L 334.5 102 L 335.5 100 Z " /><path fill="rgb(110,114,118)" stroke="rgb(110,114,118)" stroke-width="1" opacity="0.24705882352941178" d="M 48.5 101 L 49 108.5 L 48 108.5 L 48.5 101 Z " /><path fill="rgb(110,114,118)" stroke="rgb(110,114,118)" stroke-width="1" opacity="0.24705882352941178" d="M 138.5 101 L 159 101.5 L 138.5 102 L 138.5 101 Z " /><path fill="rgb(110,114,118)" stroke="rgb(110,114,118)" stroke-width="1" opacity="0.24705882352941178" d="M 196.5 101 L 201 101.5 L 196.5 102 L 196.5 101 Z " /><path fill="rgb(110,114,118)" stroke="rgb(110,114,118)" stroke-width="1" opacity="0.24705882352941178" d="M 207.5 101 L 216 101.5 L 207.5 102 L 207.5 101 Z " /><path fill="rgb(110,114,118)" stroke="rgb(110,114,118)" stroke-width="1" opacity="0.24705882352941178" d="M 228.5 101 L 237 101.5 L 228.5 102 L 228.5 101 Z " /><path fill="rgb(110,114,118)" stroke="rgb(110,114,118)" stroke-width="1" opacity="0.24705882352941178" d="M 248.5 101 L 256 101.5 L 252.5 103 L 250.5 103 L 248.5 101 Z " /><path fill="rgb(110,114,118)" stroke="rgb(110,114,118)" stroke-width="1" opacity="0.24705882352941178" d="M 263.5 101 L 266 101.5 L 263.5 102 L 263.5 101 Z " /><path fill="rgb(110,114,118)" stroke="rgb(110,114,118)" stroke-width="1" opacity="0.24705882352941178" d="M 273.5 101 L 282 101.5 L 273.5 102 L 273.5 101 Z " /><path fill="rgb(110,114,118)" stroke="rgb(110,114,118)" stroke-width="1" opacity="0.24705882352941178" d="M 328.5 101 L 333 101.5 L 328.5 102 L 328.5 101 Z " /><path fill="rgb(110,114,118)" stroke="rgb(110,114,118)" stroke-width="1" opacity="0.24705882352941178" d="M 104.5 104 L 105 107.5 L 104 107.5 L 104.5 104 Z " /><path fill="rgb(110,114,118)" stroke="rgb(110,114,118)" stroke-width="1" opacity="0.24705882352941178" d="M 105.5 109 L 106 111.5 L 105 111.5 L 105.5 109 Z " /><path fill="rgb(110,114,118)" stroke="rgb(110,114,118)" stroke-width="1" opacity="0.24705882352941178" d="M 44.5 110 L 42 113.5 L 41.5 115 L 41 113.5 L 44.5 110 Z " /><path fill="rgb(110,114,118)" stroke="rgb(110,114,118)" stroke-width="1" opacity="0.24705882352941178" d="M 383.5 110 Q 386 111 385 115.5 L 384 115.5 L 383.5 110 Z " /><path fill="rgb(110,114,118)" stroke="rgb(110,114,118)" stroke-width="1" opacity="0.24705882352941178" d="M 246.5 111 L 247 133.5 L 246 133.5 L 246.5 111 Z " /><path fill="rgb(110,114,118)" stroke="rgb(110,114,118)" stroke-width="1" opacity="0.24705882352941178" d="M 328.5 111 L 329 136.5 L 328 136.5 L 328.5 111 Z " /><path fill="rgb(110,114,118)" stroke="rgb(110,114,118)" stroke-width="1" opacity="0.24705882352941178" d="M 106.5 113 L 107 115.5 L 106 115.5 L 106.5 113 Z " /><path fill="rgb(110,114,118)" stroke="rgb(110,114,118)" stroke-width="1" opacity="0.24705882352941178" d="M 319.5 114 L 320 122.5 L 319 122.5 L 319.5 114 Z " /><path fill="rgb(110,114,118)" stroke="rgb(110,114,118)" stroke-width="1" opacity="0.24705882352941178" d="M 38.5 116 L 37.5 118 L 38.5 116 Z " /><path fill="rgb(110,114,118)" stroke="rgb(110,114,118)" stroke-width="1" opacity="0.24705882352941178" d="M 300.5 116 L 301 121.5 L 300 121.5 L 300.5 116 Z " /><path fill="rgb(110,114,118)" stroke="rgb(110,114,118)" stroke-width="1" opacity="0.24705882352941178" d="M 33.5 119 L 32.5 121 L 29.5 123 L 31.5 120 L 33.5 119 Z " /><path fill="rgb(110,114,118)" stroke="rgb(110,114,118)" stroke-width="1" opacity="0.24705882352941178" d="M 45.5 119 Q 47.8 118.3 47 120.5 L 45.5 119 Z " /><path fill="rgb(110,114,118)" stroke="rgb(110,114,118)" stroke-width="1" opacity="0.24705882352941178" d="M 147.5 120 L 148 130 L 157.5 130 L 160.5 127 L 157.5 131 L 148.5 131 L 147 129.5 L 147.5 120 Z " /><path fill="rgb(110,114,118)" stroke="rgb(110,114,118)" stroke-width="1" opacity="0.24705882352941178" d="M 384.5 120 L 386 122.5 L 384.5 126 L 384 123.5 L 384.5 120 Z " /><path fill="rgb(110,114,118)" stroke="rgb(110,114,118)" stroke-width="1" opacity="0.24705882352941178" d="M 160.5 121 L 161 123.5 L 160 123.5 L 160.5 121 Z " /><path fill="rgb(110,114,118)" stroke="rgb(110,114,118)" stroke-width="1" opacity="0.24705882352941178" d="M 277.5 121 L 284 122.5 L 275.5 123 L 275.5 122 L 277.5 121 Z " /><path fill="rgb(110,114,118)" stroke="rgb(110,114,118)" stroke-width="1" opacity="0.24705882352941178" d="M 390.5 121 L 397 122.5 L 388.5 123 L 388.5 122 L 390.5 121 Z " /><path fill="rgb(110,114,118)" stroke="rgb(110,114,118)" stroke-width="1" opacity="0.24705882352941178" d="M 183.5 122 L 193 122.5 L 183.5 123 L 183.5 122 Z " /><path fill="rgb(110,114,118)" stroke="rgb(110,114,118)" stroke-width="1" opacity="0.24705882352941178" d="M 215.5 122 L 226 122.5 L 215.5 123 L 215.5 122 Z " /><path fill="rgb(110,114,118)" stroke="rgb(110,114,118)" stroke-width="1" opacity="0.24705882352941178" d="M 265.5 122 L 266 124.5 L 265 124.5 L 265.5 122 Z " /><path fill="rgb(110,114,118)" stroke="rgb(110,114,118)" stroke-width="1" opacity="0.24705882352941178" d="M 354.5 122 L 358 122.5 L 354.5 123 L 354.5 122 Z " /><path fill="rgb(110,114,118)" stroke="rgb(110,114,118)" stroke-width="1" opacity="0.24705882352941178" d="M 359.5 122 L 365 122.5 L 359.5 123 L 359.5 122 Z " /><path fill="rgb(110,114,118)" stroke="rgb(110,114,118)" stroke-width="1" opacity="0.24705882352941178" d="M 213.5 123 L 212.5 125 L 208 128.5 L 206.5 131 L 207 129.5 L 211.5 124 L 213.5 123 Z " /><path fill="rgb(110,114,118)" stroke="rgb(110,114,118)" stroke-width="1" opacity="0.24705882352941178" d="M 287.5 123 L 288.5 125 L 287.5 123 Z " /><path fill="rgb(110,114,118)" stroke="rgb(110,114,118)" stroke-width="1" opacity="0.24705882352941178" d="M 49.5 124 L 50.5 126 Q 47.7 126.7 49.5 124 Z " /><path fill="rgb(110,114,118)" stroke="rgb(110,114,118)" stroke-width="1" opacity="0.24705882352941178" d="M 178.5 124 L 173.5 130 L 174 128.5 Q 173.3 126.3 175.5 127 L 178.5 124 Z " /><path fill="rgb(110,114,118)" stroke="rgb(110,114,118)" stroke-width="1" opacity="0.24705882352941178" d="M 229.5 124 L 235 131.5 L 234 131.5 L 229.5 124 Z " /><path fill="rgb(110,114,118)" stroke="rgb(110,114,118)" stroke-width="1" opacity="0.24705882352941178" d="M 255.5 124 L 253.5 127 L 255.5 124 Z " /><path fill="rgb(110,114,118)" stroke="rgb(110,114,118)" stroke-width="1" opacity="0.24705882352941178" d="M 271.5 124 L 273 124.5 L 269.5 127 L 269 125 L 271.5 124 Z " /><path fill="rgb(110,114,118)" stroke="rgb(110,114,118)" stroke-width="1" opacity="0.24705882352941178" d="M 319.5 124 L 320 132.5 L 319 132.5 L 319.5 124 Z " /><path fill="rgb(110,114,118)" stroke="rgb(110,114,118)" stroke-width="1" opacity="0.24705882352941178" d="M 197.5 125 L 201 127 L 200.5 129 L 197.5 125 Z " /><path fill="rgb(110,114,118)" stroke="rgb(110,114,118)" stroke-width="1" opacity="0.24705882352941178" d="M 25.5 126 L 25 127.5 L 24.5 130 L 24 127.5 L 25.5 126 Z " /><path fill="rgb(110,114,118)" stroke="rgb(110,114,118)" stroke-width="1" opacity="0.24705882352941178" d="M 369.5 126 Q 371.8 125.3 371 127.5 L 369.5 126 Z " /><path fill="rgb(110,114,118)" stroke="rgb(110,114,118)" stroke-width="1" opacity="0.24705882352941178" d="M 403.5 126 L 405 128.5 L 403 127.5 L 403.5 126 Z " /><path fill="rgb(110,114,118)" stroke="rgb(110,114,118)" stroke-width="1" opacity="0.24705882352941178" d="M 251.5 128 L 250.5 130 L 251.5 128 Z " /><path fill="rgb(110,114,118)" stroke="rgb(110,114,118)" stroke-width="1" opacity="0.24705882352941178" d="M 261.5 128 L 260.5 130 L 261.5 128 Z " /><path fill="rgb(110,114,118)" stroke="rgb(110,114,118)" stroke-width="1" opacity="0.24705882352941178" d="M 278.5 129 L 277.5 131 L 275 132.5 L 276.5 135 L 274 133.5 L 276.5 130 L 278.5 129 Z " /><path fill="rgb(110,114,118)" stroke="rgb(110,114,118)" stroke-width="1" opacity="0.24705882352941178" d="M 355.5 129 L 354.5 131 L 355.5 129 Z " /><path fill="rgb(110,114,118)" stroke="rgb(110,114,118)" stroke-width="1" opacity="0.24705882352941178" d="M 361.5 129 L 363.5 132 L 361.5 129 Z " /><path fill="rgb(110,114,118)" stroke="rgb(110,114,118)" stroke-width="1" opacity="0.24705882352941178" d="M 371.5 129 L 372.5 131 L 371.5 129 Z " /><path fill="rgb(110,114,118)" stroke="rgb(110,114,118)" stroke-width="1" opacity="0.24705882352941178" d="M 50.5 130 L 51 135.5 L 50 135.5 L 50.5 130 Z " /><path fill="rgb(110,114,118)" stroke="rgb(110,114,118)" stroke-width="1" opacity="0.24705882352941178" d="M 312.5 130 L 315 130.5 L 312.5 131 L 312.5 130 Z " /><path fill="rgb(110,114,118)" stroke="rgb(110,114,118)" stroke-width="1" opacity="0.24705882352941178" d="M 191.5 131 L 193.5 134 L 191.5 131 Z " /><path fill="rgb(110,114,118)" stroke="rgb(110,114,118)" stroke-width="1" opacity="0.24705882352941178" d="M 216.5 131 L 215 133.5 L 214.5 135 L 214 133.5 L 216.5 131 Z " /><path fill="rgb(110,114,118)" stroke="rgb(110,114,118)" stroke-width="1" opacity="0.24705882352941178" d="M 386.5 131 L 387 132.5 L 384 134.5 L 386.5 131 Z " /><path fill="rgb(110,114,118)" stroke="rgb(110,114,118)" stroke-width="1" opacity="0.24705882352941178" d="M 202.5 132 L 204.5 135 L 205.5 132 L 206 134.5 L 203.5 138 L 203 136.5 Q 205.5 135 202 133.5 L 202.5 132 Z " /><path fill="rgb(110,114,118)" stroke="rgb(110,114,118)" stroke-width="1" opacity="0.24705882352941178" d="M 225.5 132 L 226.5 134 L 225.5 132 Z " /><path fill="rgb(110,114,118)" stroke="rgb(110,114,118)" stroke-width="1" opacity="0.24705882352941178" d="M 168.5 133 L 166.5 136 L 168.5 133 Z " /><path fill="rgb(110,114,118)" stroke="rgb(110,114,118)" stroke-width="1" opacity="0.24705882352941178" d="M 181.5 133 L 181 134.5 L 180.5 137 L 180 134.5 L 181.5 133 Z " /><path fill="rgb(110,114,118)" stroke="rgb(110,114,118)" stroke-width="1" opacity="0.24705882352941178" d="M 265.5 133 L 266 136.5 L 265 136.5 L 265.5 133 Z " /><path fill="rgb(110,114,118)" stroke="rgb(110,114,118)" stroke-width="1" opacity="0.24705882352941178" d="M 256.5 134 L 255 136.5 L 254.5 138 L 254 136.5 L 256.5 134 Z " /><path fill="rgb(110,114,118)" stroke="rgb(110,114,118)" stroke-width="1" opacity="0.24705882352941178" d="M 396.5 134 L 397.5 136 L 396.5 134 Z " /><path fill="rgb(110,114,118)" stroke="rgb(110,114,118)" stroke-width="1" opacity="0.24705882352941178" d="M 171.5 135 L 172 141.5 L 171 141.5 L 171.5 135 Z " /><path fill="rgb(110,114,118)" stroke="rgb(110,114,118)" stroke-width="1" opacity="0.24705882352941178" d="M 237.5 135 L 238 138.5 L 237 138.5 L 237.5 135 Z " /><path fill="rgb(110,114,118)" stroke="rgb(110,114,118)" stroke-width="1" opacity="0.24705882352941178" d="M 300.5 136 L 301 138.5 L 300 138.5 L 300.5 136 Z " /><path fill="rgb(110,114,118)" stroke="rgb(110,114,118)" stroke-width="1" opacity="0.24705882352941178" d="M 348.5 136 L 347.5 138 L 348.5 136 Z " /><path fill="rgb(110,114,118)" stroke="rgb(110,114,118)" stroke-width="1" opacity="0.24705882352941178" d="M 148.5 138 Q 153 137 154 139.5 L 152.5 139 Q 148 138.5 148 139.5 L 148 153.5 L 146.5 155 L 139.5 156 L 138.5 154 L 147 154 L 147 139.5 L 148.5 138 Z " /><path fill="rgb(110,114,118)" stroke="rgb(110,114,118)" stroke-width="1" opacity="0.24705882352941178" d="M 328.5 138 L 329 146 L 343 146.5 L 328 147 L 328.5 138 Z " /><path fill="rgb(110,114,118)" stroke="rgb(110,114,118)" stroke-width="1" opacity="0.24705882352941178" d="M 384.5 138 Q 384.3 143.3 387 145.5 L 385 144.5 L 384.5 138 Z " /><path fill="rgb(110,114,118)" stroke="rgb(110,114,118)" stroke-width="1" opacity="0.24705882352941178" d="M 290.5 140 L 293 140.5 L 290.5 141 L 290.5 140 Z " /><path fill="rgb(110,114,118)" stroke="rgb(110,114,118)" stroke-width="1" opacity="0.24705882352941178" d="M 300.5 140 L 301 142.5 L 300 142.5 L 300.5 140 Z " /><path fill="rgb(110,114,118)" stroke="rgb(110,114,118)" stroke-width="1" opacity="0.24705882352941178" d="M 234.5 142 L 236 144.5 L 235 144.5 L 234.5 142 Z " /><path fill="rgb(110,114,118)" stroke="rgb(110,114,118)" stroke-width="1" opacity="0.24705882352941178" d="M 34.5 143 L 37 143.5 L 34.5 144 L 34.5 143 Z " /><path fill="rgb(110,114,118)" stroke="rgb(110,114,118)" stroke-width="1" opacity="0.24705882352941178" d="M 205.5 143 L 207 146.5 L 205 145.5 L 205.5 143 Z " /><path fill="rgb(110,114,118)" stroke="rgb(110,114,118)" stroke-width="1" opacity="0.24705882352941178" d="M 287.5 143 L 286.5 145 L 287.5 143 Z " /><path fill="rgb(110,114,118)" stroke="rgb(110,114,118)" stroke-width="1" opacity="0.24705882352941178" d="M 116.5 144 L 118 146.5 L 117 146.5 L 116.5 144 Z " /><path fill="rgb(110,114,118)" stroke="rgb(110,114,118)" stroke-width="1" opacity="0.24705882352941178" d="M 246.5 144 L 247 154.5 Q 245.5 157.5 239.5 156 L 238.5 154 L 246 154 L 246.5 144 Z " /><path fill="rgb(110,114,118)" stroke="rgb(110,114,118)" stroke-width="1" opacity="0.24705882352941178" d="M 260.5 144 L 262 146.5 L 260 145.5 L 260.5 144 Z " /><path fill="rgb(110,114,118)" stroke="rgb(110,114,118)" stroke-width="1" opacity="0.24705882352941178" d="M 265.5 144 L 270 151.5 L 267 149.5 Q 264 147.7 265.5 144 Z " /><path fill="rgb(110,114,118)" stroke="rgb(110,114,118)" stroke-width="1" opacity="0.24705882352941178" d="M 274.5 144 L 276.5 147 L 274.5 144 Z " /><path fill="rgb(110,114,118)" stroke="rgb(110,114,118)" stroke-width="1" opacity="0.24705882352941178" d="M 362 144 L 364 144.5 L 361 146.5 L 362 144 Z " /><path fill="rgb(110,114,118)" stroke="rgb(110,114,118)" stroke-width="1" opacity="0.24705882352941178" d="M 396.5 144 L 395.5 146 L 396.5 144 Z " /><path fill="rgb(110,114,118)" stroke="rgb(110,114,118)" stroke-width="1" opacity="0.24705882352941178" d="M 191.5 145 L 190.5 147 L 189 146.5 L 191.5 145 Z " /><path fill="rgb(110,114,118)" stroke="rgb(110,114,118)" stroke-width="1" opacity="0.24705882352941178" d="M 309.5 145 L 310.5 147 L 309.5 145 Z " /><path fill="rgb(110,114,118)" stroke="rgb(110,114,118)" stroke-width="1" opacity="0.24705882352941178" d="M 353.5 145 L 354.5 147 L 353.5 145 Z " /><path fill="rgb(110,114,118)" stroke="rgb(110,114,118)" stroke-width="1" opacity="0.24705882352941178" d="M 184.5 146 L 187 146.5 L 184.5 147 L 184.5 146 Z " /><path fill="rgb(110,114,118)" stroke="rgb(110,114,118)" stroke-width="1" opacity="0.24705882352941178" d="M 221.5 146 L 224 146.5 L 221.5 147 L 221.5 146 Z " /><path fill="rgb(110,114,118)" stroke="rgb(110,114,118)" stroke-width="1" opacity="0.24705882352941178" d="M 251.5 146 L 253.5 149 Q 251.3 149.8 252 147.5 L 251.5 146 Z " /><path fill="rgb(110,114,118)" stroke="rgb(110,114,118)" stroke-width="1" opacity="0.24705882352941178" d="M 283.5 146 L 285 146.5 L 282.5 148 L 283.5 146 Z " /><path fill="rgb(110,114,118)" stroke="rgb(110,114,118)" stroke-width="1" opacity="0.24705882352941178" d="M 319.5 146 L 320 154 L 343 154.5 Q 340.3 157.3 333.5 156 L 328.5 155 L 327.5 156 L 320 156 Q 317.9 152.9 319.5 146 Z " /><path fill="rgb(110,114,118)" stroke="rgb(110,114,118)" stroke-width="1" opacity="0.24705882352941178" d="M 19.5 147 L 20 149.5 L 19 149.5 L 19.5 147 Z " /><path fill="rgb(110,114,118)" stroke="rgb(110,114,118)" stroke-width="1" opacity="0.24705882352941178" d="M 201.5 147 L 200.5 149 L 201.5 147 Z " /><path fill="rgb(110,114,118)" stroke="rgb(110,114,118)" stroke-width="1" opacity="0.24705882352941178" d="M 312.5 147 Q 316.3 146.3 317 148.5 L 316.5 151 L 316 148 Q 311.6 149 312.5 147 Z " /><path fill="rgb(110,114,118)" stroke="rgb(110,114,118)" stroke-width="1" opacity="0.24705882352941178" d="M 405.5 147 L 403.5 150 L 405.5 147 Z " /><path fill="rgb(110,114,118)" stroke="rgb(110,114,118)" stroke-width="1" opacity="0.24705882352941178" d="M 41.5 148 L 44 148.5 L 41.5 149 L 41.5 148 Z " /><path fill="rgb(110,114,118)" stroke="rgb(110,114,118)" stroke-width="1" opacity="0.24705882352941178" d="M 118.5 148 L 120 150.5 L 118 149.5 L 118.5 148 Z " /><path fill="rgb(110,114,118)" stroke="rgb(110,114,118)" stroke-width="1" opacity="0.24705882352941178" d="M 157.5 148 L 160 154 L 170 154.5 Q 168.3 157.8 161.5 156 Q 157.3 152.9 157.5 148 Z " /><path fill="rgb(110,114,118)" stroke="rgb(110,114,118)" stroke-width="1" opacity="0.24705882352941178" d="M 293.5 148 L 292.5 150 L 293.5 148 Z " /><path fill="rgb(110,114,118)" stroke="rgb(110,114,118)" stroke-width="1" opacity="0.24705882352941178" d="M 342.5 148 L 343 152.5 L 342 152.5 L 342.5 148 Z " /><path fill="rgb(110,114,118)" stroke="rgb(110,114,118)" stroke-width="1" opacity="0.24705882352941178" d="M 344.5 149 Q 346.8 148.3 346 150.5 L 344.5 149 Z " /><path fill="rgb(110,114,118)" stroke="rgb(110,114,118)" stroke-width="1" opacity="0.24705882352941178" d="M 34.5 150 L 38 150.5 L 34.5 151 L 34.5 150 Z " /><path fill="rgb(110,114,118)" stroke="rgb(110,114,118)" stroke-width="1" opacity="0.24705882352941178" d="M 54.5 150 L 58 152.5 L 56.5 153 L 54 151.5 L 57 155.5 L 53 152.5 L 54.5 150 Z " /><path fill="rgb(110,114,118)" stroke="rgb(110,114,118)" stroke-width="1" opacity="0.24705882352941178" d="M 169.5 150 L 171 152.5 L 169 151.5 L 169.5 150 Z " /><path fill="rgb(110,114,118)" stroke="rgb(110,114,118)" stroke-width="1" opacity="0.24705882352941178" d="M 254.5 150 L 255.5 152 L 254.5 150 Z " /><path fill="rgb(110,114,118)" stroke="rgb(110,114,118)" stroke-width="1" opacity="0.24705882352941178" d="M 264.5 150 L 265.5 152 L 264.5 150 Z " /><path fill="rgb(110,114,118)" stroke="rgb(110,114,118)" stroke-width="1" opacity="0.24705882352941178" d="M 301.5 150 L 302.5 152 L 301.5 150 Z " /><path fill="rgb(110,114,118)" stroke="rgb(110,114,118)" stroke-width="1" opacity="0.24705882352941178" d="M 372.5 150 L 374 152.5 L 372 153 L 372.5 150 Z " /><path fill="rgb(110,114,118)" stroke="rgb(110,114,118)" stroke-width="1" opacity="0.24705882352941178" d="M 364.5 151 L 366 151.5 L 362.5 154 L 364.5 151 Z " /><path fill="rgb(110,114,118)" stroke="rgb(110,114,118)" stroke-width="1" opacity="0.24705882352941178" d="M 21.5 152 L 28 152.5 L 22.5 154 L 21.5 152 Z " /><path fill="rgb(110,114,118)" stroke="rgb(110,114,118)" stroke-width="1" opacity="0.24705882352941178" d="M 178.5 152 Q 179.8 154.8 184 154.5 L 180.5 155 L 178.5 152 Z " /><path fill="rgb(110,114,118)" stroke="rgb(110,114,118)" stroke-width="1" opacity="0.24705882352941178" d="M 196.5 152 L 195.5 154 L 196.5 152 Z " /><path fill="rgb(110,114,118)" stroke="rgb(110,114,118)" stroke-width="1" opacity="0.24705882352941178" d="M 211.5 152 L 212.5 154 L 211.5 152 Z " /><path fill="rgb(110,114,118)" stroke="rgb(110,114,118)" stroke-width="1" opacity="0.24705882352941178" d="M 229.5 152 L 231 152.5 L 228.5 154 L 229.5 152 Z " /><path fill="rgb(110,114,118)" stroke="rgb(110,114,118)" stroke-width="1" opacity="0.24705882352941178" d="M 271.5 152 Q 272.8 154.8 277 154.5 Q 275.8 157.2 274.5 155 L 271.5 152 Z " /><path fill="rgb(110,114,118)" stroke="rgb(110,114,118)" stroke-width="1" opacity="0.24705882352941178" d="M 347.5 152 L 348.5 154 L 347.5 152 Z " /><path fill="rgb(110,114,118)" stroke="rgb(110,114,118)" stroke-width="1" opacity="0.24705882352941178" d="M 120.5 153 L 124 157.5 L 122 156.5 L 120.5 153 Z " /><path fill="rgb(110,114,118)" stroke="rgb(110,114,118)" stroke-width="1" opacity="0.24705882352941178" d="M 266.5 153 L 267 156 L 259.5 156 L 258 154.5 L 266.5 153 Z " /><path fill="rgb(110,114,118)" stroke="rgb(110,114,118)" stroke-width="1" opacity="0.24705882352941178" d="M 304.5 153 L 307 154.5 L 305.5 155 L 304.5 153 Z " /><path fill="rgb(110,114,118)" stroke="rgb(110,114,118)" stroke-width="1" opacity="0.24705882352941178" d="M 386.5 153 L 391 155.5 L 389.5 155 Q 385.7 155.5 386.5 153 Z " /><path fill="rgb(110,114,118)" stroke="rgb(110,114,118)" stroke-width="1" opacity="0.24705882352941178" d="M 45.5 154 L 49 160 L 46 159.5 L 48 158.5 L 45 157 L 45.5 154 Z " /><path fill="rgb(110,114,118)" stroke="rgb(110,114,118)" stroke-width="1" opacity="0.24705882352941178" d="M 214.5 154 L 217 154.5 L 214.5 155 L 214.5 154 Z " /><path fill="rgb(110,114,118)" stroke="rgb(110,114,118)" stroke-width="1" opacity="0.24705882352941178" d="M 224.5 154 L 227 154.5 Q 224.9 157.8 224.5 154 Z " /><path fill="rgb(110,114,118)" stroke="rgb(110,114,118)" stroke-width="1" opacity="0.24705882352941178" d="M 284.5 154 L 288 154.5 L 284.5 155 L 284.5 154 Z " /><path fill="rgb(110,114,118)" stroke="rgb(110,114,118)" stroke-width="1" opacity="0.24705882352941178" d="M 358.5 154 L 361 154.5 L 358.5 155 L 358.5 154 Z " /><path fill="rgb(110,114,118)" stroke="rgb(110,114,118)" stroke-width="1" opacity="0.24705882352941178" d="M 366.5 154 L 374 154.5 L 371.5 156 L 369.5 156 Q 365.7 155.8 366.5 154 Z " /><path fill="rgb(110,114,118)" stroke="rgb(110,114,118)" stroke-width="1" opacity="0.24705882352941178" d="M 376 154 L 384 154.5 Q 381.5 157.1 376 156 L 376 154 Z " /><path fill="rgb(110,114,118)" stroke="rgb(110,114,118)" stroke-width="1" opacity="0.24705882352941178" d="M 395.5 154 L 399 154.5 L 395.5 155 L 395.5 154 Z " /><path fill="rgb(110,114,118)" stroke="rgb(110,114,118)" stroke-width="1" opacity="0.24705882352941178" d="M 62.5 156 L 68 160.5 L 66 161 Q 67.1 158.3 64.5 159 L 62 158 L 62.5 156 Z " /><path fill="rgb(110,114,118)" stroke="rgb(110,114,118)" stroke-width="1" opacity="0.24705882352941178" d="M 59.5 157 L 63 159.5 L 61.5 160 L 59.5 157 Z " /><path fill="rgb(110,114,118)" stroke="rgb(110,114,118)" stroke-width="1" opacity="0.24705882352941178" d="M 124.5 159 L 125.5 161 L 124.5 159 Z " /><path fill="rgb(110,114,118)" stroke="rgb(110,114,118)" stroke-width="1" opacity="0.24705882352941178" d="M 64.5 161 L 65.5 163 L 64.5 161 Z " /><path fill="rgb(110,114,118)" stroke="rgb(110,114,118)" stroke-width="1" opacity="0.24705882352941178" d="M 69.5 162 L 73 164.5 L 71 165.5 Q 73.3 164.3 70.5 163 L 69.5 162 Z " /><path fill="rgb(110,114,118)" stroke="rgb(110,114,118)" stroke-width="1" opacity="0.24705882352941178" d="M 38.5 163 L 34.5 168 L 38.5 163 Z " /><path fill="rgb(110,114,118)" stroke="rgb(110,114,118)" stroke-width="1" opacity="0.24705882352941178" d="M 79.5 168 L 82 169.5 L 80.5 169 L 77.5 171 L 79.5 168 Z " /><path fill="rgb(110,114,118)" stroke="rgb(110,114,118)" stroke-width="1" opacity="0.24705882352941178" d="M 33.5 169 L 32.5 171 L 33.5 169 Z " /><path fill="rgb(110,114,118)" stroke="rgb(110,114,118)" stroke-width="1" opacity="0.24705882352941178" d="M 83.5 170 L 84.5 172 L 83.5 170 Z " /><path fill="rgb(110,114,118)" stroke="rgb(110,114,118)" stroke-width="1" opacity="0.24705882352941178" d="M 34.5 178 L 33.5 180 L 34.5 178 Z " /><path fill="rgb(110,114,118)" stroke="rgb(110,114,118)" stroke-width="1" opacity="0.24705882352941178" d="M 91.5 178 L 92 180.5 L 91 180.5 L 91.5 178 Z " /><path fill="rgb(110,114,118)" stroke="rgb(110,114,118)" stroke-width="1" opacity="0.24705882352941178" d="M 123.5 178 L 124 180 L 121 179.5 L 123.5 178 Z " /><path fill="rgb(110,114,118)" stroke="rgb(110,114,118)" stroke-width="1" opacity="0.24705882352941178" d="M 84.5 181 L 85 184.5 L 84 184.5 L 84.5 181 Z " /><path fill="rgb(110,114,118)" stroke="rgb(110,114,118)" stroke-width="1" opacity="0.24705882352941178" d="M 93.5 182 L 92.5 184 L 93.5 182 Z " /><path fill="rgb(110,114,118)" stroke="rgb(110,114,118)" stroke-width="1" opacity="0.24705882352941178" d="M 26.5 183 L 29 183.5 L 26 185.5 L 26.5 183 Z " /><path fill="rgb(110,114,118)" stroke="rgb(110,114,118)" stroke-width="1" opacity="0.24705882352941178" d="M 100.5 184 L 99.5 186 L 100.5 184 Z " /><path fill="rgb(110,114,118)" stroke="rgb(110,114,118)" stroke-width="1" opacity="0.24705882352941178" d="M 97.5 187 L 94.5 191 L 97.5 187 Z " /><path fill="rgb(110,114,118)" stroke="rgb(110,114,118)" stroke-width="1" opacity="0.24705882352941178" d="M 92.5 192 L 89.5 196 L 92.5 192 Z " /><path fill="rgb(110,114,118)" stroke="rgb(110,114,118)" stroke-width="1" opacity="0.24705882352941178" d="M 53.5 194 L 45.5 203 L 53.5 194 Z " /><path fill="rgb(110,114,118)" stroke="rgb(110,114,118)" stroke-width="1" opacity="0.24705882352941178" d="M 61.5 196 L 57.5 201 L 61.5 196 Z " /><path fill="rgb(110,114,118)" stroke="rgb(110,114,118)" stroke-width="1" opacity="0.24705882352941178" d="M 41.5 205 L 39.5 208 L 41.5 205 Z " /><path fill="rgb(110,114,118)" stroke="rgb(110,114,118)" stroke-width="1" opacity="0.24705882352941178" d="M 21.5 215 L 22 217.5 L 21 217.5 L 21.5 215 Z " /><path fill="rgb(27,20,4)" stroke="rgb(27,20,4)" stroke-width="1" opacity="0.9725490196078431" d="M 101.5 7 Q 104.1 6.3 103 9 L 106.5 9 L 110.5 10 L 114 13.5 L 115 17.5 L 112 19.5 L 106 27.5 L 102 37.5 L 102 41.5 L 99 50.5 L 100 52.5 L 98 55.5 L 98 67.5 L 97 68.5 L 98 72.5 L 97 73.5 L 97 85.5 L 99 90.5 L 98 91.5 L 98 99.5 L 100 102.5 L 100 110.5 L 102 114.5 L 104 127 L 106 127.5 L 106 129.5 L 108 138.5 L 112 144.5 L 112 147.5 L 114 149.5 L 114 152.5 L 117 158.5 L 121 163.5 L 122 169.5 L 121 172 L 119 171.5 Q 121.3 170.3 120 165.5 L 112 151.5 L 104 131.5 L 98 108.5 L 95 80.5 L 95 78.5 Q 93.7 73.8 96 72.5 L 96 70.5 L 96 58.5 L 100 39.5 Q 102.8 37.8 102 32.5 L 110 19 Q 112.7 20.1 112 17.5 L 113 13.5 L 109.5 11 L 105.5 11 L 100.5 9 L 99 10.5 L 98 24.5 Q 94 33.5 86.5 39 L 77 45 Q 78.1 47.7 75.5 47 L 73 51 Q 70.3 49.9 71 52.5 L 63 62.5 L 57 77.5 L 55 88.5 L 55 107.5 L 59 127.5 L 63 136.5 Q 70.5 151.5 82.5 162 L 98.5 172 L 105.5 174 L 114 174 L 115 170 Q 119.1 168.7 118 172 Q 115.3 170.9 116 173.5 L 114.5 175 L 101.5 175 L 90.5 169 L 88 169 L 86.5 166 L 79.5 161 Q 78.3 163.3 77 160.5 L 78 159.5 L 72 153.5 L 70 150.5 L 65.5 143 L 64 143.5 L 64 141.5 L 56 123.5 Q 56.9 116.1 54 112.5 L 54 83.5 L 56 80.5 L 56 75.5 L 60 67.5 L 60 64.5 L 59.5 63 L 62 64 L 66 54 L 71 50.5 L 76.5 44 L 92 31.5 L 96 25.5 Q 95.2 20.2 98 18.5 L 98 9.5 L 99.5 8 L 101.5 7 Z " /><path fill="rgb(27,20,4)" stroke="rgb(27,20,4)" stroke-width="1" opacity="0.9725490196078431" d="M 110.5 27 L 111 30.5 L 109.5 33 L 109 31.5 L 110.5 27 Z " /><path fill="rgb(27,20,4)" stroke="rgb(27,20,4)" stroke-width="1" opacity="0.9725490196078431" d="M 107.5 36 L 106.5 38 L 107.5 36 Z " /><path fill="rgb(27,20,4)" stroke="rgb(27,20,4)" stroke-width="1" opacity="0.9725490196078431" d="M 77.5 37 L 75.5 40 L 77.5 37 Z " /><path fill="rgb(27,20,4)" stroke="rgb(27,20,4)" stroke-width="1" opacity="0.9725490196078431" d="M 91.5 45 L 90 47.5 L 81 67.5 L 79 76.5 L 78 92.5 L 79 93.5 L 80 111.5 L 85 128.5 L 100 154.5 L 110 164.5 L 108.5 164 L 98 157 L 88 143.5 L 77 118.5 L 74 102.5 L 74 81.5 L 77 68.5 L 81 58.5 L 91.5 45 Z M 79 70 L 78 73 L 79 73 L 79 70 Z M 78 76 L 76 78 L 77 87 L 78 83 L 78 76 Z M 77 90 L 76 109 L 78 110 L 78 100 L 77 99 L 77 90 Z M 79 112 L 78 117 L 80 118 Q 81 113 79 112 Z M 81 119 L 81 125 L 82 125 Q 83 120 81 119 Z M 85 130 L 84 133 L 86 134 L 85 130 Z " /><path fill="rgb(27,20,4)" stroke="rgb(27,20,4)" stroke-width="1" opacity="0.9725490196078431" d="M 58.5 59 L 57.5 61 L 58.5 59 Z " /><path fill="rgb(27,20,4)" stroke="rgb(27,20,4)" stroke-width="1" opacity="0.9725490196078431" d="M 101.5 72 L 102 74.5 L 100 75.5 L 101.5 72 Z " /><path fill="rgb(27,20,4)" stroke="rgb(27,20,4)" stroke-width="1" opacity="0.9725490196078431" d="M 138.5 73 L 139 89.5 L 138 89.5 L 138.5 73 Z " /><path fill="rgb(27,20,4)" stroke="rgb(27,20,4)" stroke-width="1" opacity="0.9725490196078431" d="M 101.5 82 L 102 85.5 L 101 85.5 L 101.5 82 Z " /><path fill="rgb(27,20,4)" stroke="rgb(27,20,4)" stroke-width="1" opacity="0.9725490196078431" d="M 202.5 85 L 203 90.5 L 202 90.5 L 202.5 85 Z " /><path fill="rgb(27,20,4)" stroke="rgb(27,20,4)" stroke-width="1" opacity="0.9725490196078431" d="M 281.5 95 L 282 99.5 L 278.5 101 L 278.5 100 L 281 100 L 281.5 95 Z " /><path fill="rgb(27,20,4)" stroke="rgb(27,20,4)" stroke-width="1" opacity="0.9725490196078431" d="M 201.5 100 L 204 100.5 L 201.5 101 L 201.5 100 Z " /><path fill="rgb(27,20,4)" stroke="rgb(27,20,4)" stroke-width="1" opacity="0.9725490196078431" d="M 233.5 100 L 236 100.5 L 233.5 101 L 233.5 100 Z " /><path fill="rgb(27,20,4)" stroke="rgb(27,20,4)" stroke-width="1" opacity="0.9725490196078431" d="M 265.5 100 L 268 100.5 L 265.5 101 L 265.5 100 Z " /><path fill="rgb(27,20,4)" stroke="rgb(27,20,4)" stroke-width="1" opacity="0.9725490196078431" d="M 273.5 100 L 276 100.5 L 273.5 101 L 273.5 100 Z " /><path fill="rgb(27,20,4)" stroke="rgb(27,20,4)" stroke-width="1" opacity="0.9725490196078431" d="M 294.5 100 L 297 100.5 L 294.5 101 L 294.5 100 Z " /><path fill="rgb(27,20,4)" stroke="rgb(27,20,4)" stroke-width="1" opacity="0.9725490196078431" d="M 104.5 108 L 105 111.5 L 104 111.5 L 104.5 108 Z " /><path fill="rgb(27,20,4)" stroke="rgb(27,20,4)" stroke-width="1" opacity="0.9725490196078431" d="M 154.5 111 L 160 111.5 L 154.5 112 L 154.5 111 Z " /><path fill="rgb(27,20,4)" stroke="rgb(27,20,4)" stroke-width="1" opacity="0.9725490196078431" d="M 138.5 121 L 139 129.5 L 138 129.5 L 138.5 121 Z " /><path fill="rgb(27,20,4)" stroke="rgb(27,20,4)" stroke-width="1" opacity="0.9725490196078431" d="M 376.5 125 L 377 127.5 L 376 127.5 L 376.5 125 Z " /><path fill="rgb(27,20,4)" stroke="rgb(27,20,4)" stroke-width="1" opacity="0.9725490196078431" d="M 110.5 130 L 110.5 132 L 112 132.5 L 110.5 133 Q 107.5 131.5 110.5 130 Z " /><path fill="rgb(27,20,4)" stroke="rgb(27,20,4)" stroke-width="1" opacity="0.9725490196078431" d="M 112.5 135 L 114 137.5 L 112 136.5 L 112.5 135 Z " /><path fill="rgb(27,20,4)" stroke="rgb(27,20,4)" stroke-width="1" opacity="0.9725490196078431" d="M 138.5 136 L 139 146.5 L 138 146.5 L 138.5 136 Z " /><path fill="rgb(27,20,4)" stroke="rgb(27,20,4)" stroke-width="1" opacity="0.9725490196078431" d="M 406.5 136 L 407 140.5 L 406 140.5 L 406.5 136 Z " /><path fill="rgb(27,20,4)" stroke="rgb(27,20,4)" stroke-width="1" opacity="0.9725490196078431" d="M 333.5 147 L 336 147.5 L 333.5 148 L 333.5 147 Z " /><path fill="rgb(27,20,4)" stroke="rgb(27,20,4)" stroke-width="1" opacity="0.9725490196078431" d="M 338.5 147 L 341 147.5 L 338.5 148 L 338.5 147 Z " /><path fill="rgb(27,20,4)" stroke="rgb(27,20,4)" stroke-width="1" opacity="0.9725490196078431" d="M 62.5 148 L 62 149.5 L 61.5 151 L 61 149.5 L 62.5 148 Z " /><path fill="rgb(27,20,4)" stroke="rgb(27,20,4)" stroke-width="1" opacity="0.9725490196078431" d="M 57.5 151 L 60 152.5 L 58.5 152 L 57.5 151 Z " /><path fill="rgb(27,20,4)" stroke="rgb(27,20,4)" stroke-width="1" opacity="0.9725490196078431" d="M 61.5 154 L 69 158 L 70 160.5 L 68.5 160 Q 63 158.2 61.5 154 Z " /><path fill="rgb(27,20,4)" stroke="rgb(27,20,4)" stroke-width="1" opacity="0.9725490196078431" d="M 46.5 155 L 48.5 158 L 46.5 155 Z " /><path fill="rgb(27,20,4)" stroke="rgb(27,20,4)" stroke-width="1" opacity="0.9725490196078431" d="M 50 158 L 53 159.5 Q 52.3 161.8 54.5 161 L 70 172.5 L 67 174.5 Q 69.8 172.8 65.5 171 L 50 159.5 L 50 158 Z " /><path fill="rgb(27,20,4)" stroke="rgb(27,20,4)" stroke-width="1" opacity="0.9725490196078431" d="M 64.5 162 L 65.5 164 L 64.5 162 Z " /><path fill="rgb(27,20,4)" stroke="rgb(27,20,4)" stroke-width="1" opacity="0.9725490196078431" d="M 68.5 165 L 69.5 167 L 68.5 165 Z " /><path fill="rgb(27,20,4)" stroke="rgb(27,20,4)" stroke-width="1" opacity="0.9725490196078431" d="M 79.5 167 L 77.5 170 L 79.5 167 Z " /><path fill="rgb(27,20,4)" stroke="rgb(27,20,4)" stroke-width="1" opacity="0.9725490196078431" d="M 81.5 168 L 86 171.5 L 83.5 170 L 81.5 168 Z " /><path fill="rgb(27,20,4)" stroke="rgb(27,20,4)" stroke-width="1" opacity="0.9725490196078431" d="M 92.5 175 L 92 176.5 L 91.5 178 L 91 176.5 L 92.5 175 Z " /><path fill="rgb(27,20,4)" stroke="rgb(27,20,4)" stroke-width="1" opacity="0.9725490196078431" d="M 95.5 175 L 94.5 177 L 95.5 175 Z " /><path fill="rgb(27,20,4)" stroke="rgb(27,20,4)" stroke-width="1" opacity="0.9725490196078431" d="M 108.5 177 L 111 178 L 112 180.5 L 107 181 L 108.5 177 Z " /><path fill="rgb(27,20,4)" stroke="rgb(27,20,4)" stroke-width="1" opacity="0.9725490196078431" d="M 100.5 180 L 103 180.5 L 100 182.5 L 100.5 180 Z " /><path fill="rgb(27,20,4)" stroke="rgb(27,20,4)" stroke-width="1" opacity="0.9725490196078431" d="M 93.5 184 L 92.5 186 L 93.5 184 Z " /><path fill="rgb(27,20,4)" stroke="rgb(27,20,4)" stroke-width="1" opacity="0.9725490196078431" d="M 96.5 186 L 98 186.5 L 96 187 L 95.5 189 L 95 187.5 L 96.5 186 Z " /><path fill="rgb(27,20,4)" stroke="rgb(27,20,4)" stroke-width="1" opacity="0.9725490196078431" d="M 88.5 194 L 87.5 196 L 88.5 194 Z " /><path fill="rgb(8,23,33)" stroke="rgb(8,23,33)" stroke-width="1" opacity="0.9686274509803922" d="M 99.5 3 L 108.5 4 L 119 10.5 L 120 17.5 L 111.5 29 L 110.5 27 L 109 34.5 L 107 36.5 L 107 38.5 L 105 43.5 L 105.5 45 L 104 45.5 L 105 47.5 L 103 52.5 L 104 55.5 L 101 70.5 L 101 72.5 L 102 81.5 L 101 85.5 L 102 87.5 L 102 89.5 Q 100.9 98.1 104 102.5 L 103 104.5 L 104 105.5 L 104 112 L 106 112.5 L 106 114.5 L 107 117.5 L 106.5 119 Q 108.8 118.3 108 120.5 Q 105.5 122 109 123.5 L 111 129.5 L 110.5 131 L 112 131.5 L 110 132.5 L 112 133 L 112 136.5 L 120 151.5 L 119 152.5 L 122 155.5 L 127 162.5 L 129 168.5 L 128 173.5 L 124.5 178 L 120.5 180 L 119.5 178 Q 117.8 181.1 116 179.5 Q 116.9 182.5 112.5 181 L 111 178 L 108.5 177 L 108 178.5 L 108.5 180 L 106.5 180 L 104.5 179 L 101 181.5 L 102 182.5 L 98.5 186 L 96 186.5 L 96.5 188 L 95 187.5 L 95 190 L 93 190 L 93 192 Q 90.3 190.9 91 193.5 L 86.5 197 L 83 196 L 84 192.5 L 83 190.5 L 86 176.5 L 86 172.5 L 82.5 168 L 79.5 167 L 75.5 173 L 69.5 174 L 69.5 172 L 53.5 161 L 52 161.5 L 53 159.5 L 50 158 L 49.5 160 L 45 152.5 Q 47.7 151.8 47 147.5 L 45.5 148 L 41.5 148 L 30.5 152 L 20 152 L 20 145.5 L 22 141.5 L 24 130.5 L 28.5 123 L 42 115 L 45.5 110 L 49 109 L 49 92.5 L 50 91.5 Q 47.5 90 49 84.5 L 51 80.5 Q 49.8 74.8 53 73.5 L 53 71.5 L 59 57 L 61 57 L 61 54 Q 64 55.3 63 51.5 L 67.5 46 L 69 46.5 L 69 44.5 L 74.5 39 Q 76.3 41.7 78 37.5 L 79.5 35 L 82 35 L 82 33 Q 85.7 34.5 85 31.5 L 92 21.5 L 92 19.5 Q 90.8 12.8 94 10.5 L 94 8.5 Q 93.5 4.5 96.5 4 L 99.5 3 Z M 102 7 L 98 10 L 98 19 L 99 20 L 98 19 L 96 22 L 97 27 L 96 26 L 92 32 L 77 44 L 71 51 L 66 54 L 66 57 L 62 62 Q 63 65 60 64 L 60 68 L 56 76 L 56 81 L 54 84 L 54 113 Q 57 116 56 124 Q 61 139 70 151 L 72 154 L 78 160 Q 76 161 79 162 L 81 161 L 83 161 L 82 163 L 87 166 L 88 169 L 91 169 L 102 175 L 115 175 L 116 172 L 119 171 L 121 172 L 122 170 L 121 164 L 115 154 L 114 154 L 114 153 L 112 145 L 108 139 L 106 130 L 106 128 L 104 127 L 102 115 L 100 111 L 100 103 L 98 100 L 98 92 L 99 91 L 97 86 L 97 74 L 98 73 L 97 69 L 98 68 L 98 56 L 100 53 L 99 51 L 102 42 L 101 37 L 103 37 Q 105 26 112 20 L 115 18 L 114 14 L 113 14 Q 110 13 112 12 L 107 9 L 103 10 L 103 9 Q 104 6 102 7 Z M 46 119 L 37 125 L 31 132 L 28 143 Q 26 144 29 145 L 42 142 L 47 142 L 49 142 L 51 140 L 51 131 L 50 130 L 52 129 L 47 121 Q 48 118 46 119 Z M 55 150 L 53 152 L 54 155 L 60 159 Q 59 161 63 160 L 64 163 Q 65 165 67 163 L 68 166 Q 69 168 71 166 Q 74 167 73 165 L 75 162 L 72 163 L 68 161 L 69 158 L 64 156 L 62 156 L 62 155 L 60 154 Q 57 153 59 152 L 55 150 Z M 93 175 Q 90 176 91 180 L 90 185 L 91 186 L 97 181 L 97 178 Q 94 179 95 177 L 94 177 L 93 175 Z " /><path fill="rgb(8,23,33)" stroke="rgb(8,23,33)" stroke-width="1" opacity="0.9686274509803922" d="M 138 56 L 160.5 56 L 169 62.5 Q 171 73 165.5 76 Q 161.8 75 163 78 L 165.5 78 L 170 82.5 L 171 91.5 L 169 96 L 167 96 Q 168.1 98.7 165.5 98 L 159.5 101 L 143.5 101 L 141.5 100 L 139.5 100 L 138 99.5 L 139 97.5 L 138 92.5 L 139 89.5 L 139 73.5 L 138 68.5 L 139 66.5 L 138 63.5 L 139 59.5 L 138 56 Z M 147 64 L 147 74 L 158 74 Q 162 73 161 67 L 159 64 L 147 64 Z M 147 82 L 147 93 L 159 93 Q 163 92 162 85 L 160 82 L 147 82 Z " /><path fill="rgb(8,23,33)" stroke="rgb(8,23,33)" stroke-width="1" opacity="0.9686274509803922" d="M 182.5 68 L 193.5 68 L 194.5 69 Q 196 66.5 197.5 70 L 201 72.5 L 203 79.5 L 202 81.5 L 202 85.5 Q 200.8 90.3 203 91.5 L 203 95.5 L 204 99.5 L 200.5 101 L 198.5 100 Q 197.3 102.3 196 99.5 Q 196.8 97.3 194.5 98 Q 191.1 103.1 180.5 101 L 176 99 Q 173 95.8 174 87.5 L 178.5 82 L 186.5 80 L 192.5 80 Q 193.8 82.3 195 79.5 L 194 76 L 190.5 74 L 186.5 74 L 184 75 L 182.5 78 L 176 77 Q 175.9 72.1 179.5 70 L 182.5 68 Z M 188 86 L 183 90 L 184 94 Q 193 96 195 90 L 194 86 L 191 87 L 188 86 Z " /><path fill="rgb(8,23,33)" stroke="rgb(8,23,33)" stroke-width="1" opacity="0.9686274509803922" d="M 208 68 L 215 68.5 L 215 70.5 L 215.5 72 Q 218.6 66.6 228.5 68 L 235 72.5 L 236 76.5 L 236 78.5 L 236 99.5 L 237 100.5 L 235.5 100 L 229 101 L 228 98.5 L 228 79.5 L 225.5 76 Q 217.5 74.5 216 79.5 L 216 99.5 L 214.5 101 L 212.5 100 L 209.5 101 L 207 100.5 L 208 99.5 L 208 68 Z " /><path fill="rgb(8,23,33)" stroke="rgb(8,23,33)" stroke-width="1" opacity="0.9686274509803922" d="M 248.5 68 Q 263.5 65.5 268 73.5 L 269 77.5 L 269 98.5 L 270 99.5 Q 268.8 102.3 267.5 100 L 264.5 101 L 262 100.5 L 261.5 97 Q 257.9 103.4 245.5 101 L 241 96.5 Q 243.5 95 240 93.5 Q 239.1 86.6 242.5 84 L 248.5 81 L 261 80 L 257.5 74 L 252.5 74 L 249 76 Q 250.3 79.7 244.5 78 L 242 77 Q 241.9 72.1 245.5 70 L 248.5 68 Z M 259 86 Q 257 89 252 87 Q 248 88 249 93 Q 251 96 258 94 L 260 91 Q 263 89 261 88 Q 262 85 259 86 Z " /><path fill="rgb(8,23,33)" stroke="rgb(8,23,33)" stroke-width="1" opacity="0.9686274509803922" d="M 273 68 L 280 68 Q 278.3 73.2 282 72 Q 280.9 69.3 283.5 70 Q 286.7 66.2 295.5 68 L 300 71.5 L 302 77.5 L 302 101 L 294 100 L 294 79.5 L 291.5 76 L 289.5 75 L 287.5 75 L 282 78.5 L 281 81.5 Q 283.3 82.7 282 87.5 L 281 89.5 L 282 94.5 L 281 99.5 L 281.5 101 L 278.5 100 L 276.5 101 L 273 100 L 273 68 Z " /><path fill="rgb(8,23,33)" stroke="rgb(8,23,33)" stroke-width="1" opacity="0.9686274509803922" d="M 315.5 68 L 328.5 69 L 333 73.5 L 334 76.5 L 334 95.5 L 335 99.5 Q 334 102 329.5 101 L 327 100 L 326.5 98 Q 323 102.5 313.5 101 L 310.5 100 L 307 97.5 L 305 91.5 L 307 84 Q 311.1 85.3 310 82 L 313.5 82 Q 316.8 79.3 323.5 80 Q 324.8 82.3 326 79.5 Q 326.5 74.5 322.5 74 L 317.5 74 L 313.5 78 L 310.5 78 L 308.5 77 L 307 77.5 L 310 70 L 315.5 68 Z M 323 86 Q 321 88 317 87 L 315 89 Q 314 93 317 94 Q 324 95 326 91 Q 328 85 325 86 L 323 86 Z " /><path fill="rgb(8,23,33)" stroke="rgb(8,23,33)" stroke-width="1" opacity="0.9686274509803922" d="M 78.5 70 L 79 72.5 L 78 72.5 L 78.5 70 Z " /><path fill="rgb(8,23,33)" stroke="rgb(8,23,33)" stroke-width="1" opacity="0.9686274509803922" d="M 77.5 76 L 78 82.5 L 76.5 87 L 76 77.5 L 77.5 76 Z " /><path fill="rgb(8,23,33)" stroke="rgb(8,23,33)" stroke-width="1" opacity="0.9686274509803922" d="M 78.5 89 L 79 92.5 L 78 92.5 L 78.5 89 Z " /><path fill="rgb(8,23,33)" stroke="rgb(8,23,33)" stroke-width="1" opacity="0.9686274509803922" d="M 76.5 90 L 77 98.5 L 78 99.5 L 78 109.5 L 76 108.5 L 76.5 90 Z " /><path fill="rgb(8,23,33)" stroke="rgb(8,23,33)" stroke-width="1" opacity="0.9686274509803922" d="M 138.5 111 L 141.5 112 L 142.5 111 L 153.5 111 Q 154.8 113.3 159.5 112 L 161.5 112 L 168 115.5 Q 172.5 119 171 128.5 Q 168.3 129.6 169 133 Q 166.3 131.9 167 134.5 L 162 137.5 L 165 145 Q 168 143.8 167 147.5 L 171 153.5 L 160 154 L 159 149.5 L 152.5 138 Q 148 137 147 139.5 L 147 154 L 138.5 154 L 138 151.5 L 139 149.5 L 138 147.5 L 139 146.5 L 139 136.5 L 138 134.5 L 139 132.5 L 138 130.5 L 139 129.5 L 139 121.5 L 138 117.5 L 138 115.5 L 139 112.5 L 138.5 111 Z M 149 119 L 147 121 L 147 130 L 149 131 L 158 131 Q 163 129 161 121 L 158 119 L 149 119 Z " /><path fill="rgb(8,23,33)" stroke="rgb(8,23,33)" stroke-width="1" opacity="0.9686274509803922" d="M 238 111 L 244.5 112 L 246 111.5 L 245 113.5 L 246 114.5 L 246.5 134 L 249 133 L 256 123 L 264.5 123 L 265 124.5 L 254 137.5 L 260 144.5 L 261 148 L 264 149.5 L 266 154 L 257.5 154 L 257 152.5 L 248.5 142 L 246 143.5 L 245 146.5 L 246 147.5 L 246 154 L 238.5 154 L 238 153.5 L 238 111 Z " /><path fill="rgb(8,23,33)" stroke="rgb(8,23,33)" stroke-width="1" opacity="0.9686274509803922" d="M 321.5 111 L 323.5 111 L 326.5 112 L 328 111.5 L 327 113.5 L 328 115.5 L 328 117.5 L 327 120.5 Q 329.3 121.8 328 126.5 L 328 128.5 L 327 131.5 L 328 136.5 L 327 139.5 L 328 141.5 L 327 143.5 L 328 147 L 335.5 148 L 337.5 147 L 340.5 148 L 342.5 147 L 342 148.5 L 343 153.5 L 320 154 L 320 136.5 L 321 135.5 L 320 134.5 L 320 124.5 L 320 122.5 L 320 112.5 L 321.5 111 Z " /><path fill="rgb(8,23,33)" stroke="rgb(8,23,33)" stroke-width="1" opacity="0.9686274509803922" d="M 377.5 111 L 379.5 111 Q 383.3 110.3 384 112.5 L 384.5 126 L 387.5 123 L 397.5 123 L 402 125 L 406 132.5 L 406 134.5 L 406 142.5 L 405 143.5 L 405 145.5 L 401.5 152 Q 398.3 155.3 391.5 155 L 383 152 L 382.5 154 L 376 154 L 376 146.5 L 377 145.5 L 376 143.5 L 376 141.5 L 377 137.5 Q 374.8 136.2 376 131.5 L 376 129.5 L 377 125.5 L 376 122.5 L 377 117.5 L 376 112.5 L 377.5 111 Z M 393 129 L 387 131 L 384 134 Q 383 141 385 145 L 391 148 L 398 144 Q 400 132 393 129 Z " /><path fill="rgb(8,23,33)" stroke="rgb(8,23,33)" stroke-width="1" opacity="0.9686274509803922" d="M 78.5 112 Q 81 113 80 117.5 L 78 116.5 L 78.5 112 Z " /><path fill="rgb(8,23,33)" stroke="rgb(8,23,33)" stroke-width="1" opacity="0.9686274509803922" d="M 305.5 116 L 309 117 L 309 123 L 315 123 L 315 125.5 L 315 127.5 L 313.5 130 Q 309 129.5 309 130.5 L 309 145.5 L 315 148 L 316 151.5 L 315.5 154 L 308.5 155 L 303 153 L 301 149.5 L 301 130 L 297.5 129 L 296 129.5 L 297 125.5 L 296 123 L 301 123 L 301 117 L 304.5 117 L 305.5 116 Z " /><path fill="rgb(8,23,33)" stroke="rgb(8,23,33)" stroke-width="1" opacity="0.9686274509803922" d="M 80.5 119 L 83 119.5 L 81.5 125 Q 79 123 80.5 119 Z " /><path fill="rgb(8,23,33)" stroke="rgb(8,23,33)" stroke-width="1" opacity="0.9686274509803922" d="M 181.5 123 L 183.5 123 L 193.5 123 L 202 130.5 L 202 132.5 L 203 134.5 L 203 136.5 Q 203.7 143.6 202 147 Q 199 145.8 200 149.5 Q 196 156 184.5 155 Q 177.1 153.9 174 148.5 Q 170 143.5 172 132.5 L 179.5 124 L 181.5 123 Z M 187 130 L 180 135 L 180 143 L 182 146 Q 184 148 191 147 L 195 142 L 194 134 Q 192 130 187 130 Z " /><path fill="rgb(8,23,33)" stroke="rgb(8,23,33)" stroke-width="1" opacity="0.9686274509803922" d="M 214.5 123 L 224.5 123 L 225.5 124 L 227.5 124 L 233 128.5 L 235 134 L 229.5 134 L 222.5 130 L 218.5 130 L 214 133.5 L 213 140.5 L 216.5 146 L 223.5 147 L 227 145.5 Q 224.8 144.3 227.5 143 L 229.5 143 Q 234.9 141.1 234 144.5 L 234 146.5 L 233 150 L 231 150 Q 232.1 152.7 229.5 152 L 227.5 154 L 217.5 155 Q 210.9 154.1 208 149.5 L 208.5 148 Q 206.3 148.8 207 146.5 Q 204 143.5 205 136.5 L 206 131.5 L 211.5 125 L 214.5 123 Z " /><path fill="rgb(8,23,33)" stroke="rgb(8,23,33)" stroke-width="1" opacity="0.9686274509803922" d="M 274.5 123 Q 287.8 120.8 292 127.5 L 295 134.5 L 295 136.5 Q 296.9 141.9 293.5 141 L 290.5 140 L 289.5 141 L 277.5 141 L 275.5 141 L 273 141.5 L 276.5 147 L 282.5 148 Q 285.5 143.3 294 145 L 294 147.5 L 290.5 152 Q 286.4 155.9 277.5 155 Q 270.9 154.1 268 149.5 L 266 145.5 L 265 137.5 Q 267.2 136.2 266 131.5 L 271.5 125 L 274.5 123 Z M 279 129 L 277 130 Q 273 131 274 135 L 277 136 L 278 135 L 287 135 L 286 131 L 283 129 L 279 129 Z " /><path fill="rgb(8,23,33)" stroke="rgb(8,23,33)" stroke-width="1" opacity="0.9686274509803922" d="M 352.5 123 L 365.5 123 L 369 125 L 372 131.5 L 372 152.5 L 373 153.5 L 365 154 L 366 151.5 L 364.5 151 L 361.5 154 L 352.5 155 L 346 150.5 L 345 142.5 L 349.5 136 L 355.5 135 L 357.5 135 L 364 135 L 364 131.5 Q 362.5 127.5 355.5 129 L 353.5 132 L 351.5 132 L 348.5 131 L 346 132 L 349.5 125 L 352.5 123 Z M 362 140 L 357 141 L 353 144 Q 353 148 356 148 L 362 147 Q 365 146 364 142 L 362 140 Z " /><path fill="rgb(8,23,33)" stroke="rgb(8,23,33)" stroke-width="1" opacity="0.9686274509803922" d="M 82.5 126 L 84 128.5 L 82 127.5 L 82.5 126 Z " /><path fill="rgb(8,23,33)" stroke="rgb(8,23,33)" stroke-width="1" opacity="0.9686274509803922" d="M 84.5 130 L 86 133.5 L 84 132.5 L 84.5 130 Z " /><path fill="rgb(8,23,33)" stroke="rgb(8,23,33)" stroke-width="1" opacity="0.9686274509803922" d="M 86.5 136 L 89 139.5 L 87 138.5 L 86.5 136 Z " /></svg>
